<?xml version="1.0" encoding="UTF-8" standalone="no"?>
<svg
   width="164"
   height="42"
   viewBox="0 0 164 42"
   version="1.1"
   id="svg17"
   sodipodi:docname="distribution_logo_transparent.svg"
   inkscape:version="1.2.2 (b0a8486541, 2022-12-01)"
   xmlns:inkscape="http://www.inkscape.org/namespaces/inkscape"
   xmlns:sodipodi="http://sodipodi.sourceforge.net/DTD/sodipodi-0.dtd"
   xmlns="http://www.w3.org/2000/svg"
   xmlns:svg="http://www.w3.org/2000/svg"
   xmlns:rdf="http://www.w3.org/1999/02/22-rdf-syntax-ns#"
   xmlns:cc="http://creativecommons.org/ns#"
   xmlns:dc="http://purl.org/dc/elements/1.1/">
  <sodipodi:namedview
     id="namedview19"
     pagecolor="#505050"
     bordercolor="#eeeeee"
     borderopacity="1"
     inkscape:showpageshadow="0"
     inkscape:pageopacity="0"
     inkscape:pagecheckerboard="0"
     inkscape:deskcolor="#505050"
     showgrid="false"
     inkscape:zoom="5.5432121"
     inkscape:cx="27.871926"
     inkscape:cy="11.184851"
     inkscape:window-width="1600"
     inkscape:window-height="808"
     inkscape:window-x="0"
     inkscape:window-y="0"
     inkscape:window-maximized="1"
     inkscape:current-layer="svg17" />
  <!-- Generator: Sketch 47 (45396) - http://www.bohemiancoding.com/sketch -->
  <title
     id="title2">logo</title>
  <desc
     id="desc4">Created with Sketch.</desc>
  <defs
     id="defs7">
    <path
       d="m 33,17.5 c 0,0.552285 -0.447715,1 -1,1 H 20 c -1.656854,0 -3,-1.343146 -3,-3 v -7 c 0,-1.6568543 1.343146,-3 3,-3 h 10 c 1.656854,0 3,1.3431457 3,3 v 3 c 0,1.10457 -0.895431,2 -2,2 H 20 v 1 c 0,0.552285 0.447715,1 1,1 h 11 c 0.552285,0 1,0.447715 1,1 z m -13,-7 h 10 v -1 c 0,-0.5522847 -0.447715,-1 -1,-1 h -8 c -0.552285,0 -1,0.4477153 -1,1 z m 30,7 c 0,0.552285 -0.447715,1 -1,1 H 37 c -1.656854,0 -3,-1.343146 -3,-3 v -7 c 0,-1.6568543 1.343146,-3 3,-3 h 10 c 1.656854,0 3,1.3431457 3,3 v 3 c 0,1.10457 -0.895431,2 -2,2 H 37 v 1 c 0,0.552285 0.447715,1 1,1 h 11 c 0.552285,0 1,0.447715 1,1 z m -13,-7 h 10 v -1 c 0,-0.5522847 -0.447715,-1 -1,-1 h -8 c -0.552285,0 -1,0.4477153 -1,1 z m -24,-9 c 0,-0.55228475 0.447715,-1 1,-1 h 1 c 0.552285,0 1,0.44771525 1,1 v 13.995491 l -10e-7,0.0023 c -0.0013,1.656855 -1.345449,2.99897 -3.002304,2.997698 C 10.974543,18.493937 8.9753117,18.49544 7,18.5 1.8507234,18.499028 0.94983889,14 0.98925278,11.623086 1.0286667,9.2461725 1.828601,5.8717201 7,5.5 h 6 z m -5,14 c 1.288068,0.0026 3.954897,-0.0026 5,0 -1.4e-5,-0.801966 -1.4e-5,-6.99528 0,-7 -1.4e-5,0.00472 -3.9804686,0 -5,0 C 6.2319609,8.5 3.9400206,9.3685357 3.9415228,12.000374 3.9425256,14.686287 6.0105184,15.494431 8,15.5 Z m 59,-13 v -1 c 0,-0.55228475 0.447715,-1 1,-1 h 1 c 0.552285,0 1,0.44771525 1,1 v 1 c 0,0.5522848 -0.447715,1 -1,1 h -1 c -0.552285,0 -1,-0.4477152 -1,-1 z m 0,15 v -11 c 0,-0.5522848 0.447715,-1 1,-1 h 1 c 0.552285,0 1,0.4477152 1,1 v 11 c 0,0.552285 -0.447715,1 -1,1 h -1 c -0.552285,0 -1,-0.447715 -1,-1 z m 4,-12 c 0,0.00104 2.666706,0.00127 8.000118,6.754e-4 h 5.57e-4 C 81.761726,5.5006754 84,7.7389493 84,10.5 v 7 c 0,0.552285 -0.447715,1 -1,1 h -1 c -0.552285,0 -1,-0.447715 -1,-1 v -7 c 0,-1.1045695 -0.895431,-2 -2,-2 h -5 v 9 c 0.014,0.474633 0.034,1.077151 -1,1 -0.144,-0.01927 -0.9125,-0.01677 -1,0 -0.855,0.04318 -1,-0.291055 -1,-1 z m -17,16 c 0,0.552285 -0.447715,1 -1,1 h -1 c -0.552285,0 -1,-0.447715 -1,-1 v -14 c 0,-1.1045695 0.895431,-2 2,-2 h 7 c 3.313708,0 6,2.6862915 6,6 v 1 c 0,3.313709 -2.686292,6 -6,6 h -6 z m 9,-10 c 0,-1.6568542 -1.343146,-3 -3,-3 h -6 v 7 h 6 c 1.656854,0 3,-1.343146 3,-3 z"
       id="path-1" />
  </defs>
  <ellipse
     id="path131"
     cx="21.000002"
     cy="20.999998"
     style="fill:#002424;fill-opacity:1;stroke:#002424;stroke-width:3.73669;stroke-dasharray:none;stroke-opacity:0.919447"
     rx="19.131659"
     ry="19.131657" />
  <path
     style="fill:#ffffff;fill-opacity:1;stroke-width:0.05562"
     d="m 21.691063,36.823299 c -1.039613,-0.05148 -1.593799,-0.153802 -2.508057,-0.462991 -2.16099,-0.731062 -3.895,-1.84165 -5.695099,-3.647599 C 10.992727,30.209438 9.2989081,26.97402 8.7396433,23.642887 8.567943,22.620201 8.5307878,21.8414 8.5433366,19.528155 c 0.00688,-1.269526 -0.00536,-2.42086 -0.027193,-2.558523 -0.034417,-0.21696 0.00469,-0.384853 0.2936184,-1.260833 0.3223998,-0.977419 0.6446672,-1.809909 1.0029471,-2.590854 0.130786,-0.285082 0.1996259,-0.375434 0.2860579,-0.375434 0.161326,0 0.4007,-0.28432 0.552059,-0.655715 0.300963,-0.738482 0.633164,-1.401577 0.716956,-1.431097 0.04949,-0.01751 0.158679,-0.176977 0.242621,-0.354546 0.192627,-0.4074553 0.598666,-0.8504107 1.741317,-1.8996392 0.762357,-0.7000284 0.909822,-0.8137649 0.924825,-0.7133057 0.01667,0.1120178 0.0336,0.1062447 0.26814,-0.09176 0.669412,-0.5650553 1.816019,-1.1865776 3.580135,-1.9406119 0.756697,-0.3234414 1.011521,-0.4100835 1.068065,-0.3631593 0.05501,0.045641 0.231337,0.031572 0.679916,-0.054247 0.810283,-0.1550315 0.875783,-0.148029 0.520703,0.055581 -0.163456,0.093719 -0.288596,0.178582 -0.278096,0.1885437 0.0105,0.01 0.149176,-0.00272 0.308179,-0.028092 0.161624,-0.02582 0.443644,-0.023862 0.63963,0.00458 0.192795,0.027864 0.388081,0.052767 0.43397,0.055331 0.04865,0.00272 0.03127,0.025613 -0.04174,0.054957 -0.06884,0.027634 -0.125141,0.07613 -0.125141,0.1077033 0,0.084321 0.495335,0.070192 1.089442,-0.031094 0.409746,-0.069837 0.578875,-0.075691 0.802215,-0.0278 0.385837,0.082757 0.395849,0.080485 0.355438,-0.080527 l -0.03543,-0.1412364 0.215153,0.084654 c 0.118325,0.046558 0.553043,0.1875854 0.966023,0.3133902 0.412979,0.1258128 1.061786,0.3768764 1.441795,0.5579256 l 0.690921,0.3291851 0.328638,-0.084195 c 0.394239,-0.1009937 0.544382,-0.1046393 0.826627,-0.020008 0.134878,0.04041 0.227083,0.1072241 0.249416,0.1807698 0.05195,0.1710163 0.17827,0.2984998 0.539302,0.5443586 0.379137,0.2581818 0.504905,0.2556143 0.284928,-0.00584 L 28.928516,7.110908 29.092334,7.195792 c 0.286999,0.1486971 1.053956,0.7212875 1.570718,1.172654 0.494389,0.431818 1.146788,1.1407409 1.577994,1.714718 0.477938,0.63616 1.110435,1.823703 1.297974,2.436993 l 0.04252,0.139048 -0.11951,-0.139048 -0.119529,-0.139046 0.02737,0.5562 c 0.02064,0.41935 0.06873,0.678513 0.195524,1.053309 0.224494,0.663635 0.209876,0.744308 -0.02085,0.114706 -0.347216,-0.947725 -0.801175,-1.816042 -0.857701,-1.640578 -0.04112,0.127627 -0.122545,0.15947 -0.324185,0.126731 -0.143737,-0.02334 -0.193025,-0.0079 -0.222881,0.06992 -0.05414,0.141089 0.07073,0.688636 0.186155,0.816146 0.08922,0.09857 0.101787,0.09969 0.16422,0.01437 0.05958,-0.08146 0.08129,-0.06564 0.182719,0.133149 0.06328,0.124084 0.1151,0.292347 0.1151,0.373903 0,0.08157 0.05254,0.37208 0.11674,0.6456 0.06422,0.273525 0.107023,0.507071 0.0951,0.518988 -0.01184,0.01187 -0.08287,-0.07738 -0.157709,-0.198423 -0.201131,-0.325447 -0.291335,-0.290293 -0.184495,0.07192 0.120234,0.407597 0.229891,0.659652 0.33989,0.781203 0.08838,0.09766 0.08825,0.107181 -0.0023,0.157761 -0.113456,0.06348 -0.126648,0.345674 -0.03596,0.76862 0.0586,0.273168 0.08889,0.303614 0.283013,0.284489 0.07848,-0.0077 0.05903,0.08872 -0.124892,0.61932 -0.119814,0.345664 -0.220395,0.741109 -0.223501,0.878767 l -0.0056,0.250289 -0.08557,-0.208574 c -0.113668,-0.277011 -0.181727,-0.263615 -0.181727,0.03577 0,0.16587 -0.02678,0.254622 -0.08343,0.276354 -0.05359,0.02064 -0.08372,0.107286 -0.08427,0.242339 -0.0016,0.378861 -0.154427,0.873171 -0.499665,1.614954 -0.186843,0.401422 -0.354762,0.822714 -0.373177,0.936204 l -0.03346,0.206342 -0.149157,-0.182758 -0.149157,-0.182776 -0.203757,0.325741 c -0.16821,0.268901 -0.204424,0.379424 -0.207656,0.633393 -0.0023,0.169202 -0.0276,0.357706 -0.05664,0.41889 -0.04039,0.0852 -0.04676,0.06206 -0.02715,-0.09879 l 0.02557,-0.210043 -0.149692,0.108513 c -0.08233,0.05968 -0.312384,0.275374 -0.511226,0.479317 -1.065292,1.092622 -2.348708,1.828822 -3.837782,2.201462 -0.472188,0.118172 -0.649587,0.132051 -1.668575,0.130429 -0.955769,-0.0016 -1.225688,-0.02094 -1.668606,-0.120139 -0.932327,-0.208803 -1.339673,-0.363986 -1.586168,-0.604269 -0.122935,-0.119796 -0.467985,-0.41553 -0.766811,-0.657176 -1.296079,-1.048031 -2.030641,-2.0775 -2.36264,-3.311118 -0.129691,-0.481879 -0.143445,-0.632324 -0.145363,-1.589055 l -0.0023,-1.056781 0.171184,-0.333719 c 0.09414,-0.183542 0.215501,-0.471383 0.269673,-0.639634 0.160597,-0.498771 0.408288,-0.956802 0.661714,-1.22364 0.130731,-0.137651 0.317718,-0.378732 0.415511,-0.535721 0.336951,-0.540923 1.049874,-1.10887 1.755278,-1.39833 0.551169,-0.226173 0.860136,-0.293096 1.506273,-0.326264 1.169302,-0.06003 2.096255,0.272924 3.095638,1.111901 0.387321,0.325148 0.496695,0.504461 0.147879,0.242435 -0.267346,-0.200839 -0.793775,-0.453321 -1.241191,-0.595303 -0.540528,-0.171538 -1.562026,-0.214786 -2.158516,-0.09141 -1.844807,0.381578 -3.222695,1.69708 -3.684537,3.517707 -0.09385,0.369947 -0.136108,0.689736 -0.136108,1.029979 0,0.443223 0.05279,0.615332 0.130023,0.423928 0.01542,-0.03823 0.03003,0.04477 0.03244,0.184456 0.01646,0.951472 0.488136,2.148723 1.194221,3.031221 1.16058,1.450545 3.010497,2.291268 4.594656,2.088106 0.266677,-0.0342 0.632317,-0.113705 0.812538,-0.176686 0.180238,-0.06298 0.418622,-0.121705 0.529788,-0.130506 0.31052,-0.02456 0.874585,-0.320719 1.240192,-0.651153 0.215873,-0.195107 0.295364,-0.245463 0.229983,-0.145682 -0.09719,0.148336 -0.09694,0.152498 0.0089,0.152498 0.05989,0 0.281788,-0.1235 0.493074,-0.274439 0.494002,-0.352917 1.641654,-1.36223 1.730324,-1.521754 0.03753,-0.06748 0.06909,-0.23785 0.07018,-0.378593 0.0028,-0.407086 0.08623,-0.570943 0.356033,-0.70202 0.224619,-0.109123 0.251006,-0.14744 0.437812,-0.635885 0.201151,-0.525964 0.322157,-1.03887 0.318556,-1.35037 l -0.0019,-0.170558 -0.08452,0.139046 -0.08452,0.139048 0.0371,-0.16687 c 0.06583,-0.295923 0.09475,-3.038381 0.03338,-3.16478 -0.0312,-0.06423 -0.08512,-0.329543 -0.119811,-0.589565 -0.123667,-0.926837 -0.66297,-2.262518 -1.280912,-3.172482 C 28.94621,10.946508 28.085723,10.030376 27.288471,9.4320286 26.200947,8.6158315 24.837968,8.157894 23.074953,8.0163625 c -0.690418,-0.055416 -1.855347,-0.00667 -2.102148,0.088114 -0.0491,0.018747 -0.120234,0.00917 -0.158092,-0.021259 -0.0882,-0.071129 -0.667303,0.00542 -1.153407,0.1524274 -0.198838,0.060147 -0.599305,0.2445813 -0.889922,0.4098627 -0.290614,0.1652854 -0.697339,0.3558943 -0.903825,0.4235737 -0.229215,0.075131 -0.375435,0.1537811 -0.375435,0.2019438 0,0.04339 0.0063,0.07859 0.01396,0.078234 0.0077,-3.771e-4 0.151573,-0.037596 0.319812,-0.082778 0.389928,-0.1046603 0.396063,-0.1036804 0.187501,0.029927 -0.109809,0.070379 -0.353733,0.1334837 -0.661161,0.1710794 -0.590208,0.072193 -0.830629,0.1527807 -1.21048,0.4056883 -0.387601,0.2580802 -0.821852,0.7003612 -0.687643,0.7003612 0.05426,0 0.152717,-0.02892 0.218791,-0.06429 0.116831,-0.06253 0.117686,-0.06062 0.03132,0.06952 -0.06336,0.09547 -0.161369,0.144279 -0.342134,0.17033 -0.353193,0.05089 -0.928441,0.367424 -1.485463,0.817347 -0.831288,0.671447 -2.259491,2.224987 -2.551442,2.775347 -0.06065,0.114331 -0.05421,0.125146 0.07464,0.125146 0.07755,0 0.141006,0.01814 0.141006,0.04038 0,0.0222 -0.252254,0.543666 -0.560569,1.158777 l -0.560566,1.118386 -0.16754,1.552697 c -0.11171,1.035271 -0.170287,1.877064 -0.175774,2.526051 -0.0091,1.065798 0.05123,1.479714 0.274387,1.885294 0.121532,0.220872 0.131063,0.286149 0.09861,0.675238 -0.034,0.407777 -0.02693,0.447348 0.133081,0.742747 0.121687,0.224673 0.147134,0.312023 0.09091,0.312023 -0.04295,0 -0.07808,0.02112 -0.07808,0.04691 0,0.09625 0.212831,0.660803 0.354607,0.940587 0.163514,0.322698 0.296449,0.428622 0.606028,0.482929 0.115371,0.02022 0.294181,0.110918 0.397355,0.201506 0.173205,0.152078 0.577933,0.849594 0.671557,1.157381 l 0.04008,0.131727 -0.179603,-0.103929 c -0.09878,-0.05716 -0.207549,-0.147746 -0.241703,-0.201257 -0.03417,-0.05353 -0.08159,-0.09732 -0.10541,-0.09732 -0.125606,0 0.250692,0.82187 0.603464,1.318059 0.170579,0.239915 0.178977,0.270155 0.09954,0.357933 -0.116998,0.129208 -0.06291,0.271469 0.205237,0.539602 0.126731,0.126705 0.193295,0.230851 0.155637,0.243416 -0.159326,0.05316 0.08294,0.487312 0.858689,1.538962 0.32919,0.446257 0.434272,0.55544 0.462882,0.480874 0.02742,-0.07147 0.0832,0.0021 0.215444,0.284763 0.09814,0.209697 0.294632,0.537683 0.436666,0.728874 0.246049,0.331216 0.269411,0.347638 0.494744,0.347993 0.204757,3.34e-4 0.253174,0.0248 0.360732,0.182777 0.184895,0.271613 0.449962,0.510049 0.801325,0.720828 l 0.313738,0.188198 -0.103929,0.135259 c -0.05717,0.07439 -0.104476,0.149425 -0.105161,0.166721 -7.56e-4,0.01662 0.138256,0.0894 0.30872,0.160058 0.170475,0.07066 0.381459,0.188599 0.468863,0.262193 0.155615,0.130868 0.955275,0.528388 0.991074,0.492605 0.01,-0.0105 -0.0233,-0.101703 -0.07394,-0.204027 -0.06717,-0.13568 0.04089,-0.04794 0.399144,0.323902 0.834753,0.866336 1.236451,1.052047 2.917681,1.348939 0.355623,0.06274 0.706025,0.137971 0.778676,0.167141 0.157997,0.06316 0.207925,0.06316 -1.036728,0.001 z m 1.975306,-10.543586 c -1.662821,-0.311441 -3.08828,-1.015828 -4.177698,-2.064413 -0.263428,-0.25356 -0.58541,-0.617225 -0.715513,-0.808148 -0.204821,-0.300563 -0.132129,-0.238938 0.541795,0.459364 0.428085,0.443572 0.856439,0.851707 0.951895,0.906969 0.214997,0.124472 0.22487,0.07457 0.01938,-0.09828 -0.08476,-0.07134 -0.277309,-0.28871 -0.427883,-0.483084 l -0.273775,-0.353408 0.33055,0.307381 c 0.581896,0.541097 1.523459,1.147503 1.56911,1.010564 0.01336,-0.03996 0.13482,0.03154 0.301679,0.177507 0.153664,0.134419 0.409987,0.308349 0.569623,0.386514 0.41885,0.205091 1.324903,0.372608 2.223123,0.411022 0.574417,0.02459 0.741125,0.04691 0.641117,0.08595 -0.146695,0.05725 -1.327333,0.104423 -1.553468,0.06208 z m -5.1221,-2.380135 c -0.433009,-0.517148 -0.718005,-0.973787 -0.718005,-1.150449 0,-0.111566 0.0198,-0.163303 0.05027,-0.131268 0.0842,0.08851 0.855183,1.418834 0.832777,1.436934 -0.01145,0.0091 -0.08578,-0.06054 -0.165034,-0.15519 z m 0.03155,-1.437469 -0.08762,-0.180772 0.113999,0.131307 c 0.06269,0.07221 0.113998,0.153548 0.113998,0.180773 0,0.09725 -0.05417,0.04656 -0.140382,-0.131308 z m 5.409029,-0.42448 c -0.596764,-0.155611 -0.597668,-0.229051 -0.0026,-0.229051 0.277612,0 0.589225,-0.01452 0.692471,-0.0325 l 0.187721,-0.0325 -0.207759,0.199339 c -0.114278,0.109639 -0.226898,0.197901 -0.250291,0.196129 -0.0234,-0.0019 -0.212085,-0.0474 -0.419319,-0.101451 z m 2.441069,-1.135261 c -0.09742,-0.07124 -0.09311,-0.08009 0.07279,-0.148794 0.09702,-0.0402 0.213389,-0.144633 0.258619,-0.232086 0.04523,-0.08747 0.09462,-0.159028 0.109753,-0.159028 0.03339,0 -0.159236,0.37817 -0.263049,0.516398 -0.06438,0.08573 -0.08865,0.08894 -0.178119,0.02349 z m -0.256636,-0.15792 c 0,-0.08459 0.377256,-0.715694 0.427835,-0.715694 0.01642,0 -0.01165,0.06361 -0.0627,0.141348 -0.05093,0.07773 -0.153931,0.256666 -0.228877,0.397624 -0.07493,0.140967 -0.136271,0.220488 -0.136271,0.176724 z m 1.216847,-2.536739 c -0.07705,-0.225687 -0.07189,-0.335034 0.02108,-0.448107 0.09043,-0.109976 0.150722,0.02238 0.151715,0.333067 7.56e-4,0.331219 -0.08047,0.385508 -0.172793,0.11504 z M 8.2854471,14.893611 c -0.046451,-0.115207 0.057509,-0.51431 0.1486436,-0.570632 0.063489,-0.03924 0.019361,0.343088 -0.064752,0.560901 -0.040548,0.10499 -0.045253,0.105536 -0.083893,0.0096 z m 0.7832257,-2.621419 c 0.044476,-0.106455 0.080871,-0.256927 0.080871,-0.334388 0,-0.112059 0.02761,-0.14084 0.1351674,-0.14084 0.1215117,0 0.1305265,0.01542 0.089222,0.15295 -0.077258,0.257217 -0.1127662,0.316083 -0.2520046,0.417816 L 8.9878015,12.46575 Z M 22.136821,5.3450458 c -0.09857,-0.042348 -0.09383,-0.048247 0.04172,-0.051726 0.08414,-0.00229 0.152956,0.021111 0.152956,0.051726 0,0.065271 -0.04274,0.065271 -0.19467,0 z"
     id="path2377" />
  <path
     style="display:inline;fill:#fefefe;stroke-width:0.0321745"
     d="m 26.087047,37.748949 c -2.662816,-0.97898 -4.363606,-3.445487 -4.302668,-6.239754 0.02201,-1.008572 0.339973,-2.192581 0.829942,-3.090326 0.577392,-1.057949 1.500636,-1.961189 2.617638,-2.560923 2.40193,-1.289629 5.37026,-0.947982 7.415869,0.853538 0.890307,0.784071 1.485678,1.678023 1.854303,2.784213 0.311943,0.936111 0.405818,1.814263 0.302169,2.826631 -0.04232,0.41341 -0.334246,1.502176 -0.512088,1.909963 -0.573538,1.315093 -1.54571,2.396462 -2.775948,3.087801 -1.17948,0.662789 -2.501439,0.931922 -3.858229,0.785477 -0.379,-0.04085 -1.250173,-0.238686 -1.570985,-0.35662 z m 1.117383,-0.539061 c 2.457637,0.437171 4.872561,-0.688172 6.08813,-2.837009 0.42976,-0.759717 0.63941,-1.458142 0.696833,-2.321437 0.05462,-0.821177 -0.110193,-1.819098 -0.420502,-2.546639 l -0.08253,-0.193399 -0.455472,-0.144212 c -1.011642,-0.320088 -2.003862,-0.425083 -2.774659,-0.2936 l -0.290528,0.0496 0.134839,0.0398 0.134839,0.0398 -0.114183,0.327277 c -0.144212,0.413392 -0.37298,0.903287 -0.576343,1.234254 -0.421193,0.685484 -1.076278,1.208455 -1.536755,1.226815 -0.202131,0.0084 -0.474953,-0.101703 -0.547638,-0.220137 -0.0766,-0.125046 -0.124415,-0.365293 -0.119031,-0.598392 0.0065,-0.276323 0.179263,-0.841808 0.343454,-1.123467 0.263768,-0.452466 0.848229,-1.025621 1.375802,-1.349147 0.310953,-0.1907 1.909593,-1.006615 2.496165,-1.274008 l 0.251741,-0.114774 -0.239347,-0.171208 c -0.537349,-0.384325 -1.06499,-0.643212 -1.631534,-0.800518 -0.467947,-0.129913 -0.412379,-0.146445 -0.843064,0.250548 -0.627267,0.578191 -1.298109,1.529274 -1.759365,2.49429 -0.0999,0.209049 -0.182967,0.448359 -0.285363,0.822404 -0.126725,0.462888 -0.144843,0.566319 -0.147611,0.84383 -0.0075,0.749776 0.241888,1.393162 0.647162,1.669507 0.282697,0.192775 0.742486,0.184017 1.156171,-0.0223 0.240526,-0.119833 0.636461,-0.457467 0.841842,-0.71787 0.343715,-0.435793 0.691089,-1.229502 0.86377,-1.973611 l 0.100967,-0.435169 0.155763,0.05961 c 0.114755,0.04397 0.162502,0.08025 0.181287,0.13776 0.01431,0.04376 0.05844,0.08711 0.100337,0.09877 0.146026,0.04044 0.5379,0.865337 0.709339,1.493197 0.09605,0.351828 0.156565,0.872131 0.147173,1.265515 -0.0063,0.261445 -0.02888,0.37619 -0.187263,0.948616 -0.195318,0.705907 -0.292281,0.923106 -0.618387,1.384931 -0.648392,0.918249 -1.753867,1.665755 -3.006103,2.032755 -0.559048,0.163799 -1.76561,0.348305 -1.948023,0.29781 -0.03449,-0.0084 -0.046,-0.001 -0.03217,0.02314 0.02022,0.03565 0.438767,0.207988 0.717304,0.29531 0.06759,0.02125 0.280373,0.06648 0.472871,0.100852 z m -0.457369,-3.147843 c 1.119201,0.158398 2.162754,-0.0012 2.858112,-0.437565 0.595016,-0.373294 0.974353,-0.86688 1.201461,-1.563389 0.153873,-0.471869 0.197235,-0.841204 0.16844,-1.43451 -0.0219,-0.451361 -0.118708,-1.044584 -0.140872,-0.863398 -0.08118,0.663162 -0.361394,1.675947 -0.575606,2.080418 -0.455645,0.860335 -1.167055,1.390953 -1.927447,1.437635 -0.447558,0.02751 -1.110958,-0.133999 -1.50675,-0.366666 -0.695247,-0.408743 -1.396235,-1.396227 -1.650262,-2.32473 -0.246294,-0.900246 -0.338841,-2.090943 -0.26626,-3.425729 0.0054,-0.101272 -0.02228,-0.08557 -0.352838,0.199652 -0.522184,0.450547 -1.036739,1.107542 -1.375255,1.755909 -0.135947,0.260381 -0.186385,0.401513 -0.336535,0.941779 -0.151735,0.545917 -0.179417,0.684108 -0.196402,0.980542 -0.02293,0.399909 -0.01872,0.670249 0.01642,1.063342 l 0.02523,0.28118 0.160344,0.09982 c 0.647466,0.402929 1.580686,0.877801 2.19853,1.118714 0.432281,0.168593 1.288878,0.398888 1.699583,0.457033 z m 1.229534,-3.280139 c 0.299225,-0.144633 0.789446,-0.625069 1.053965,-1.032749 0.160478,-0.247314 0.343121,-0.610061 0.324101,-0.643635 -0.0065,-0.0105 -0.09515,0.0063 -0.197275,0.03897 -0.201527,0.06461 -0.322364,0.185067 -0.37451,0.373377 -0.04693,0.169642 -0.304065,0.538914 -0.490798,0.704991 -0.09442,0.08398 -0.269113,0.198817 -0.388151,0.25519 -0.119052,0.05626 -0.221496,0.120674 -0.227677,0.142972 -0.01527,0.05481 0.06748,0.195901 0.123901,0.211551 0.02499,0.0063 0.104392,-0.01662 0.176457,-0.05086 z"
     id="path12817" />
  <text
     xml:space="preserve"
     style="font-style:normal;font-weight:normal;font-size:21.0971px;line-height:1.25;font-family:sans-serif;letter-spacing:0px;word-spacing:0px;fill:#ffffff;fill-opacity:0.87960023;stroke:none;stroke-width:0.527428"
     x="43.98946"
     y="28.217505"
     id="text6047"><tspan
       sodipodi:role="line"
       id="tspan6045"
       x="43.98946"
       y="28.217505"
       style="fill:#ffffff;fill-opacity:0.87960023;stroke-width:0.527428">DebianDDE</tspan></text>
  <metadata
     id="metadata137">
    <rdf:RDF>
      <cc:Work
         rdf:about="">
        <dc:title>logo</dc:title>
      </cc:Work>
    </rdf:RDF>
  </metadata>
</svg>
