<?xml version="1.0" encoding="UTF-8" standalone="no"?>
<!-- Created with Inkscape (http://www.inkscape.org/) -->

<svg
   width="512"
   height="512"
   viewBox="0 0 135.46666 135.46667"
   version="1.1"
   id="svg5"
   inkscape:version="1.2.2 (b0a8486541, 2022-12-01)"
   sodipodi:docname="icon.svg"
   xml:space="preserve"
   xmlns:inkscape="http://www.inkscape.org/namespaces/inkscape"
   xmlns:sodipodi="http://sodipodi.sourceforge.net/DTD/sodipodi-0.dtd"
   xmlns="http://www.w3.org/2000/svg"
   xmlns:svg="http://www.w3.org/2000/svg"><sodipodi:namedview
     id="namedview7"
     pagecolor="#505050"
     bordercolor="#ffffff"
     borderopacity="1"
     inkscape:showpageshadow="0"
     inkscape:pageopacity="0"
     inkscape:pagecheckerboard="1"
     inkscape:deskcolor="#505050"
     inkscape:document-units="mm"
     showgrid="false"
     inkscape:zoom="0.60488917"
     inkscape:cx="179.3717"
     inkscape:cy="381.88814"
     inkscape:window-width="1600"
     inkscape:window-height="808"
     inkscape:window-x="0"
     inkscape:window-y="0"
     inkscape:window-maximized="1"
     inkscape:current-layer="layer1" /><defs
     id="defs2"><inkscape:perspective
       sodipodi:type="inkscape:persp3d"
       inkscape:vp_x="0 : 67.733335 : 1"
       inkscape:vp_y="0 : 1000 : 0"
       inkscape:vp_z="135.46666 : 67.733335 : 1"
       inkscape:persp3d-origin="67.73333 : 45.155557 : 1"
       id="perspective793" /></defs><g
     inkscape:label="图层 1"
     inkscape:groupmode="layer"
     id="layer1"><ellipse
       id="path131"
       cx="67.733376"
       cy="67.73336"
       style="fill:#a80030;fill-opacity:1;stroke:#a80030;stroke-width:12.0523;stroke-dasharray:none;stroke-opacity:0.919447"
       rx="61.707222"
       ry="61.707207" /><path
       style="fill:#ffffff;fill-opacity:1;stroke-width:0.179397"
       d="m 69.962327,118.76983 c -3.35317,-0.16579 -5.14064,-0.49577 -8.08949,-1.49334 -6.97005,-2.35793 -12.56293,-5.94005 -18.36897,-11.76493 -8.04794,-8.074037 -13.511186,-18.509587 -15.315036,-29.253807 -0.5538,-3.29857 -0.67364,-5.81052 -0.63317,-13.27166 0.0222,-4.094729 -0.0173,-7.808242 -0.0877,-8.252249 -0.11103,-0.699787 0.0151,-1.241309 0.94703,-4.066688 1.03987,-3.152563 2.07931,-5.837682 3.2349,-8.356538 0.42184,-0.919505 0.643886,-1.210928 0.922656,-1.210928 0.52034,0 1.29241,-0.917037 1.78061,-2.114937 0.97072,-2.381901 2.0422,-4.520646 2.31246,-4.615861 0.15964,-0.05624 0.51179,-0.570842 0.78255,-1.143557 0.62131,-1.314205 1.93094,-2.742904 5.61645,-6.127087 2.4589,-2.257871 2.93453,-2.624713 2.98292,-2.300691 0.0539,0.361264 0.1083,0.342667 0.86486,-0.295945 2.15913,-1.822524 5.85739,-3.827173 11.54736,-6.259251 2.44066,-1.043216 3.26256,-1.322675 3.44494,-1.17132 0.1774,0.147227 0.74615,0.10185 2.19301,-0.174964 2.61348,-0.500011 2.82475,-0.477454 1.67947,0.179308 -0.5272,0.302327 -0.93084,0.575978 -0.89698,0.608114 0.0338,0.03214 0.48117,-0.0086 0.994,-0.09058 0.52131,-0.08331 1.43094,-0.07692 2.06307,0.01448 0.62184,0.08992 1.25172,0.170234 1.39972,0.178472 0.15692,0.0087 0.10084,0.08261 -0.13455,0.177223 -0.222,0.08923 -0.40364,0.245574 -0.40364,0.347422 0,0.271949 1.59765,0.226355 3.51389,-0.10028 1.32159,-0.225274 1.8671,-0.244185 2.58746,-0.0897 1.24448,0.266893 1.27677,0.259575 1.14642,-0.259769 l -0.11433,-0.455527 0.69395,0.273027 c 0.38168,0.150165 1.78379,0.605029 3.11581,1.01081 1.33202,0.40578 3.42468,1.215569 4.65036,1.799531 l 2.2285,1.061749 1.05998,-0.271556 c 1.27158,-0.325765 1.75585,-0.33753 2.66621,-0.06478 0.43501,0.130332 0.73242,0.345876 0.80446,0.583039 0.16759,0.551593 0.57496,0.962788 1.73947,1.755782 1.22286,0.832734 1.62852,0.824454 0.919,-0.01875 l -0.50401,-0.598985 0.52843,0.273794 c 0.92568,0.479616 3.39942,2.326438 5.06619,3.782268 1.594593,1.392792 3.698833,3.679353 5.089663,5.530652 1.54153,2.051879 3.58158,5.882163 4.18647,7.860282 l 0.13714,0.448491 -0.38545,-0.448491 -0.38547,-0.448493 0.0883,1.793968 c 0.0666,1.352566 0.22173,2.188476 0.63067,3.397343 0.72408,2.140483 0.67693,2.400683 -0.0671,0.369989 -1.1199,-3.056793 -2.5841,-5.857465 -2.76643,-5.291517 -0.13261,0.411647 -0.39526,0.514328 -1.04562,0.408789 -0.46359,-0.07523 -0.6226,-0.02535 -0.71887,0.225516 -0.17461,0.455046 0.22817,2.221135 0.60037,2.632406 0.28776,0.317977 0.32828,0.321502 0.52967,0.04607 0.19215,-0.262779 0.26223,-0.21171 0.58933,0.429456 0.20418,0.400236 0.37124,0.942928 0.37124,1.205982 0,0.263055 0.16947,1.200099 0.37659,2.08232 0.20712,0.882219 0.34513,1.63549 0.30669,1.673931 -0.0384,0.03844 -0.26733,-0.249557 -0.50863,-0.639998 -0.64875,-1.049696 -0.93967,-0.936306 -0.59509,0.231941 0.38777,1.314674 0.74149,2.12764 1.09629,2.519697 0.28507,0.314988 0.28465,0.345696 -0.007,0.508821 -0.36593,0.204791 -0.40851,1.114942 -0.11595,2.479102 0.18896,0.881082 0.28666,0.979287 0.91283,0.917591 0.25312,-0.02494 0.19037,0.286179 -0.40285,1.997554 -0.38646,1.114903 -0.71085,2.390374 -0.72088,2.834381 l -0.0182,0.807291 -0.27601,-0.672743 c -0.36658,-0.893473 -0.58612,-0.850264 -0.58612,0.115354 0,0.535039 -0.0864,0.821259 -0.26909,0.891359 -0.1728,0.0663 -0.27005,0.34601 -0.27175,0.78163 -0.005,1.22198 -0.49807,2.81634 -1.61161,5.20888 -0.60261,1.29474 -1.14425,2.65358 -1.20365,3.01963 l -0.108,0.66555 -0.48112,-0.58948 -0.48111,-0.58949 -0.65719,1.05064 c -0.542503,0.86731 -0.659373,1.2238 -0.669793,2.04294 -0.007,0.54576 -0.0891,1.15375 -0.18267,1.35109 -0.13026,0.27479 -0.15077,0.20019 -0.0876,-0.31868 l 0.0825,-0.67747 -0.48282,0.35001 c -0.26556,0.1925 -1.00757,0.88819 -1.64891,1.54598 -3.436,3.52414 -7.57552,5.89868 -12.37838,7.10059 -1.52308,0.38116 -2.09525,0.42588 -5.3819,0.42064 -3.08273,-0.005 -3.95333,-0.0676 -5.38191,-0.38753 -3.00714,-0.67347 -4.32098,-1.17399 -5.11603,-1.949 -0.39644,-0.38645 -1.50941,-1.34032 -2.47324,-2.11972 -4.18027,-3.38033 -6.54953,-6.70076 -7.62036,-10.67967 -0.41829,-1.55426 -0.46268,-2.0395 -0.46885,-5.12534 l -0.007,-3.408541 0.55211,-1.076381 c 0.30365,-0.592009 0.69507,-1.520387 0.8698,-2.063063 0.51799,-1.608743 1.31689,-3.086069 2.13429,-3.946728 0.42168,-0.444008 1.02477,-1.221569 1.34018,-1.727914 1.08681,-1.744696 3.38627,-3.576547 5.66148,-4.510176 1.77774,-0.72949 2.77428,-0.945346 4.85833,-1.052328 3.77146,-0.193602 6.76125,0.880279 9.98467,3.58632 1.24926,1.048735 1.60204,1.627096 0.47697,0.781947 -0.86231,-0.647773 -2.56026,-1.462143 -4.00335,-1.920082 -1.74342,-0.553245 -5.03816,-0.692769 -6.96208,-0.294827 -5.95023,1.230736 -10.39447,5.473748 -11.88409,11.345993 -0.30268,1.193232 -0.43898,2.224684 -0.43898,3.3221 0,1.42957 0.17027,1.98469 0.41938,1.36733 0.0498,-0.12334 0.0969,0.14438 0.10465,0.59494 0.053,3.06888 1.57443,6.9305 3.85183,9.7769 3.74334,4.67859 9.71005,7.39025 14.81961,6.73497 0.86013,-0.11031 2.03947,-0.36675 2.62075,-0.56988 0.58128,-0.20314 1.35023,-0.39254 1.70878,-0.4209 1.00155,-0.0792 2.82088,-1.03445 4.0001,-2.10022 0.69629,-0.62931 0.95268,-0.79171 0.7418,-0.46986 -0.31349,0.47846 -0.31271,0.49184 0.029,0.49184 0.19321,0 0.90887,-0.39833 1.59036,-0.88518 1.59335,-1.13829 5.29499,-4.39373 5.58099,-4.90827 0.12099,-0.21765 0.22283,-0.76715 0.22633,-1.2211 0.0101,-1.31302 0.27815,-1.84152 1.14835,-2.2643 0.72448,-0.35198 0.80959,-0.47558 1.41212,-2.05098 0.64882,-1.69644 1.039083,-3.35076 1.027463,-4.35548 l -0.006,-0.5501 -0.272583,0.4485 -0.27258,0.44849 0.11973,-0.53819 c 0.21236,-0.954498 0.305623,-9.800008 0.10765,-10.207697 -0.10062,-0.207194 -0.27451,-1.062911 -0.38643,-1.901591 -0.3989,-2.989421 -2.13834,-7.29752 -4.13145,-10.232515 -1.98045,-2.91634 -4.75586,-5.871227 -7.32732,-7.801133 -3.5077,-2.632568 -7.90385,-4.109597 -13.59027,-4.566084 -2.22688,-0.178766 -5.98423,-0.02128 -6.78026,0.284185 -0.15836,0.06076 -0.38782,0.02992 -0.50989,-0.06854 -0.28445,-0.229431 -2.15232,0.0174 -3.7202,0.491622 -0.64134,0.193978 -1.933,0.788869 -2.87035,1.32198 -0.93735,0.533112 -2.24919,1.147895 -2.9152,1.366187 -0.73931,0.242317 -1.21093,0.496001 -1.21093,0.651363 0,0.139958 0.0202,0.253511 0.0448,0.25234 0.0247,-0.0012 0.48886,-0.121306 1.03153,-0.266966 1.25767,-0.337573 1.27746,-0.334412 0.60479,0.09656 -0.35421,0.226949 -1.14093,0.430516 -2.13251,0.551808 -1.90366,0.232855 -2.67911,0.492745 -3.90428,1.308501 -1.25017,0.832407 -2.6508,2.258951 -2.21792,2.258951 0.17503,0 0.49259,-0.09331 0.70569,-0.207354 0.3768,-0.201662 0.37958,-0.195509 0.10105,0.224246 -0.20435,0.307957 -0.52048,0.465339 -1.10352,0.549372 -1.13919,0.164191 -2.99459,1.18509 -4.79121,2.636268 -2.68123,2.165693 -7.28776,7.176482 -8.22941,8.951598 -0.19561,0.368756 -0.17481,0.403643 0.24068,0.403643 0.25015,0 0.45481,0.05863 0.45481,0.130287 0,0.07166 -0.81363,1.753546 -1.80806,3.737527 l -1.80806,3.607239 -0.54039,5.008066 c -0.36031,3.339157 -0.54924,6.054277 -0.56694,8.147517 -0.0291,3.43762 0.16523,4.77267 0.88501,6.08083 0.39198,0.7124 0.42272,0.92294 0.31806,2.17791 -0.10968,1.31524 -0.0868,1.44288 0.42923,2.39566 0.39249,0.72466 0.47458,1.00639 0.29324,1.00639 -0.13851,0 -0.25184,0.0681 -0.25184,0.15131 0,0.31053 0.68647,2.13137 1.14376,3.03378 0.52743,1.04083 0.95616,1.38248 1.95467,1.55763 0.37212,0.0653 0.94885,0.35775 1.28163,0.64993 0.55863,0.49049 1.86406,2.74028 2.16604,3.73301 l 0.12926,0.42491 -0.57927,-0.33522 c -0.3186,-0.18436 -0.66942,-0.47649 -0.77958,-0.64915 -0.11017,-0.17267 -0.26316,-0.31395 -0.33997,-0.31395 -0.40511,0 0.80858,2.65088 1.94641,4.25127 0.55017,0.77383 0.57729,0.87133 0.32106,1.15446 -0.37734,0.41695 -0.20291,0.87557 0.66196,1.74044 0.40875,0.40875 0.62347,0.74459 0.50196,0.78509 -0.5139,0.1713 0.26751,1.57178 2.76961,4.963767 1.06177,1.4394 1.4007,1.79151 1.49299,1.55102 0.0885,-0.23061 0.26834,0.007 0.69489,0.91851 0.31652,0.6763 0.95031,1.7342 1.40842,2.35087 0.79361,1.06829 0.86896,1.12129 1.59575,1.12245 0.66043,10e-4 0.81658,0.0802 1.1635,0.58985 0.59638,0.87607 1.45131,1.64511 2.5846,2.32493 l 1.01193,0.60703 -0.3352,0.43609 c -0.18436,0.23986 -0.337,0.48179 -0.3392,0.53764 -0.002,0.0559 0.44589,0.288 0.99574,0.5159 0.54985,0.2279 1.23037,0.60844 1.51227,0.84564 0.50194,0.42236 3.08114,1.70433 3.19661,1.58885 0.0322,-0.0322 -0.0751,-0.32841 -0.2385,-0.65825 -0.21663,-0.43736 0.13188,-0.15455 1.2874,1.04469 2.69241,2.79431 3.98804,3.39332 9.41067,4.3509 1.14704,0.20256 2.27723,0.44502 2.51155,0.53881 0.50958,0.20397 0.67061,0.20372 -3.34386,0.005 z m 6.37114,-34.007277 c -5.36326,-1.00451 -9.96093,-3.27645 -13.47474,-6.65855 -0.84966,-0.81783 -1.88818,-1.99079 -2.30781,-2.60659 -0.66061,-0.96943 -0.42619,-0.77067 1.7475,1.48163 1.38075,1.43069 2.76236,2.74709 3.07024,2.92534 0.69346,0.40147 0.72531,0.2405 0.0627,-0.31702 -0.27339,-0.23004 -0.89443,-0.93121 -1.3801,-1.55814 l -0.88303,-1.13988 1.06616,0.99142 c 1.87685,1.74527 4.91376,3.70116 5.061,3.25948 0.043,-0.12887 0.43484,0.10172 0.97303,0.5725 0.4956,0.43355 1.32238,0.99455 1.83727,1.24667 1.35096,0.66149 4.27334,1.2018 7.17046,1.3257 1.85271,0.0793 2.39042,0.15133 2.06785,0.27723 -0.47313,0.18465 -4.28118,0.33681 -5.01055,0.20021 z m -16.52081,-7.67687 c -1.39663,-1.66801 -2.31585,-3.14086 -2.31585,-3.71067 0,-0.35982 0.0639,-0.52669 0.16211,-0.42343 0.27156,0.28548 2.7583,4.5763 2.68604,4.63469 -0.0371,0.03 -0.27666,-0.19527 -0.5323,-0.50059 z m 0.10174,-4.63641 -0.28257,-0.58304 0.36766,0.42352 c 0.20222,0.23293 0.36767,0.4953 0.36767,0.58304 0,0.31362 -0.1747,0.1502 -0.45276,-0.42352 z m 17.44626,-1.36913 c -1.9248,-0.50195 -1.92771,-0.73878 -0.009,-0.73878 0.89541,0 1.90048,-0.0472 2.23349,-0.10478 l 0.60546,-0.10478 -0.6701,0.64297 c -0.36856,0.35364 -0.73184,0.63832 -0.80729,0.63263 -0.0755,-0.006 -0.68406,-0.15296 -1.35246,-0.32726 z m 7.87343,-3.66167 c -0.31426,-0.2298 -0.30033,-0.25827 0.23482,-0.47994 0.3129,-0.1296 0.68827,-0.46646 0.83415,-0.74856 0.14588,-0.28211 0.30517,-0.51293 0.35398,-0.51293 0.1077,0 -0.51364,1.21975 -0.84845,1.6656 -0.20768,0.27655 -0.28588,0.28687 -0.5745,0.0758 z m -0.82776,-0.50939 c 0,-0.27287 1.21681,-2.30842 1.37994,-2.30842 0.0531,0 -0.0379,0.20514 -0.2022,0.45588 -0.16429,0.25073 -0.49648,0.82785 -0.73822,1.28249 -0.24174,0.45465 -0.43952,0.71117 -0.43952,0.57005 z m 3.92482,-8.182009 c -0.24849,-0.727915 -0.23191,-1.080605 0.068,-1.445317 0.29163,-0.354689 0.48611,0.07222 0.48938,1.074283 0.003,1.068306 -0.25954,1.243408 -0.55735,0.371034 z M 26.723871,48.037847 c -0.14983,-0.371572 0.18549,-1.658851 0.47944,-1.840521 0.20478,-0.126564 0.0624,1.106602 -0.20886,1.809139 -0.13077,0.338665 -0.14595,0.340425 -0.27058,0.03138 z m 2.52621,-8.45512 c 0.14346,-0.343351 0.26084,-0.828689 0.26084,-1.078528 0,-0.361461 0.0891,-0.454254 0.43597,-0.454254 0.39193,0 0.421,0.04984 0.28778,0.493341 -0.2492,0.82962 -0.36372,1.019487 -0.81282,1.347623 l -0.43261,0.31609 z M 71.400057,17.23992 c -0.31793,-0.136622 -0.30261,-0.155615 0.13455,-0.166788 0.27134,-0.0069 0.49334,0.06812 0.49334,0.166788 0,0.210561 -0.13788,0.210561 -0.62789,0 z"
       id="path2377" /><path
       style="display:inline;fill:#fefefe;stroke-width:0.103776"
       d="m 84.141112,121.75542 c -8.588635,-3.15761 -14.074358,-11.11308 -13.877806,-20.12573 0.07094,-3.253014 1.096545,-7.071914 2.67688,-9.967519 1.862324,-3.412289 4.840159,-6.325599 8.442929,-8.259978 7.747178,-4.159563 17.321234,-3.057623 23.919135,2.753005 2.8716,2.528946 4.7919,5.412255 5.98086,8.980196 1.00614,3.019332 1.30892,5.851706 0.97462,9.117016 -0.1365,1.33339 -1.07807,4.8451 -1.65168,6.1604 -1.84989,4.24165 -4.98554,7.72955 -8.95355,9.95935 -3.804279,2.13779 -8.068125,3.00587 -12.444318,2.53349 -1.222424,-0.13199 -4.032306,-0.76982 -5.067049,-1.15023 z m 3.604008,-1.73872 c 7.926854,1.41006 15.71595,-2.21958 19.63665,-9.15045 1.38614,-2.45041 2.06235,-4.7031 2.24756,-7.48753 0.17617,-2.64864 -0.35535,-5.867318 -1.35629,-8.213975 l -0.26618,-0.62375 -1.46908,-0.464831 c -3.26297,-1.032435 -6.46327,-1.371077 -8.949409,-0.946976 l -0.93706,0.159852 0.434898,0.128632 0.434883,0.128634 -0.368251,1.055603 c -0.465169,1.333351 -1.20302,2.913517 -1.858933,3.981006 -1.358516,2.210975 -3.47144,3.897755 -4.956652,3.956935 -0.651975,0.026 -1.531919,-0.32772 -1.766354,-0.71003 -0.247081,-0.40296 -0.40132,-1.17821 -0.383955,-1.930045 0.02059,-0.891262 0.578182,-2.715137 1.107772,-3.623639 0.850758,-1.459408 2.735879,-3.307996 4.43751,-4.351508 1.002946,-0.615006 6.1592,-3.246738 8.051121,-4.10919 l 0.81196,-0.370158 -0.77198,-0.552191 c -1.73316,-1.239604 -3.43503,-2.074621 -5.262338,-2.581989 -1.509327,-0.419054 -1.330097,-0.47234 -2.719229,0.808109 -2.023178,1.864888 -4.186922,4.932478 -5.674658,8.045084 -0.322258,0.674256 -0.590092,1.446093 -0.920409,2.652539 -0.408775,1.49299 -0.467145,1.826619 -0.4761,2.721693 -0.02422,2.418325 0.780196,4.493485 2.087365,5.384825 0.911813,0.62168 2.394803,0.59327 3.729106,-0.0716 0.775792,-0.38655 2.052835,-1.47552 2.715279,-2.31543 1.108611,-1.40563 2.229032,-3.965642 2.785998,-6.365678 l 0.325708,-1.403605 0.50238,0.192455 c 0.370094,0.141775 0.524071,0.258751 0.584718,0.444251 0.04609,0.141 0.188474,0.2812 0.323637,0.318591 0.470973,0.130375 1.734943,2.791086 2.287903,4.816191 0.30986,1.134755 0.50501,2.812975 0.47468,4.081805 -0.0203,0.84322 -0.0932,1.21333 -0.60405,3.05963 -0.62994,2.27683 -0.94272,2.97739 -1.994541,4.46693 -2.091322,2.96173 -5.65691,5.37276 -9.695871,6.55648 -1.803163,0.52849 -5.694813,1.12342 -6.283163,0.96053 -0.111289,-0.0306 -0.148422,-0.004 -0.103837,0.0747 0.06514,0.11499 1.415186,0.67082 2.313587,0.95249 0.217976,0.0684 0.904316,0.21459 1.525198,0.32509 z m -1.475191,-10.15302 c 3.609877,0.51095 6.975744,-0.004 9.218546,-1.41135 1.919169,-1.20401 3.14268,-2.79599 3.875195,-5.04251 0.496275,-1.52197 0.636148,-2.71321 0.543282,-4.626883 -0.07064,-1.455847 -0.382865,-3.369235 -0.454402,-2.784782 -0.261842,2.138954 -1.16565,5.405555 -1.856569,6.710155 -1.469636,2.77492 -3.764209,4.48639 -6.216776,4.63694 -1.443563,0.0886 -3.583284,-0.43209 -4.859879,-1.18262 -2.242445,-1.31839 -4.503404,-4.50342 -5.322749,-7.498212 -0.794399,-2.903631 -1.092896,-6.744121 -0.858789,-11.049327 0.01776,-0.3267 -0.07182,-0.276004 -1.138042,0.643956 -1.684255,1.453229 -3.343906,3.572267 -4.435753,5.663527 -0.438472,0.839825 -0.601123,1.295012 -1.08546,3.037572 -0.489394,1.760823 -0.578679,2.206579 -0.633478,3.162674 -0.07392,1.28984 -0.06037,2.16179 0.05332,3.42966 l 0.08133,0.90696 0.517213,0.3219 c 2.08834,1.29963 5.09834,2.83122 7.091129,3.60828 1.394286,0.54364 4.157151,1.28659 5.481834,1.47409 z m 3.96573,-10.579771 c 0.96513,-0.466786 2.546283,-2.016097 3.399456,-3.331008 0.517559,-0.79768 1.106714,-1.96768 1.045366,-2.075998 -0.02058,-0.03628 -0.306882,0.02034 -0.636303,0.125845 -0.65003,0.208156 -1.039757,0.596714 -1.207953,1.204302 -0.151392,0.546901 -0.980731,1.738171 -1.583022,2.273866 -0.304609,0.270949 -0.867992,0.641318 -1.251944,0.823076 -0.383955,0.181758 -0.71441,0.389406 -0.734341,0.461428 -0.04893,0.176763 0.21765,0.631962 0.399637,0.682308 0.08062,0.02229 0.336727,-0.05145 0.569136,-0.163844 z"
       id="path12817" /></g></svg>
