<?xml version="1.0" encoding="UTF-8" standalone="no"?>
<!-- Created with Inkscape (http://www.inkscape.org/) -->

<svg
   width="7680"
   height="720"
   viewBox="0 0 2032 190.5"
   version="1.1"
   id="svg5"
   inkscape:version="1.2.1 (9c6d41e410, 2022-07-14)"
   sodipodi:docname="wallpaper-green-installer-logo.svg"
   inkscape:export-filename="wallpaper-green-installer-logo.png"
   inkscape:export-xdpi="10"
   inkscape:export-ydpi="10"
   xmlns:inkscape="http://www.inkscape.org/namespaces/inkscape"
   xmlns:sodipodi="http://sodipodi.sourceforge.net/DTD/sodipodi-0.dtd"
   xmlns="http://www.w3.org/2000/svg"
   xmlns:svg="http://www.w3.org/2000/svg">
  <sodipodi:namedview
     id="namedview7"
     pagecolor="#505050"
     bordercolor="#ffffff"
     borderopacity="1"
     inkscape:showpageshadow="0"
     inkscape:pageopacity="0"
     inkscape:pagecheckerboard="1"
     inkscape:deskcolor="#505050"
     inkscape:document-units="mm"
     showgrid="false"
     inkscape:zoom="0.096379015"
     inkscape:cx="2215.2125"
     inkscape:cy="2324.1574"
     inkscape:window-width="1600"
     inkscape:window-height="836"
     inkscape:window-x="0"
     inkscape:window-y="0"
     inkscape:window-maximized="1"
     inkscape:current-layer="layer1" />
  <defs
     id="defs2">
    <inkscape:path-effect
       effect="bspline"
       id="path-effect6635"
       is_visible="true"
       lpeversion="1"
       weight="33.333333"
       steps="2"
       helper_size="0"
       apply_no_weight="true"
       apply_with_weight="true"
       only_selected="false" />
    <inkscape:path-effect
       effect="bspline"
       id="path-effect6631"
       is_visible="true"
       lpeversion="1"
       weight="33.333333"
       steps="2"
       helper_size="0"
       apply_no_weight="true"
       apply_with_weight="true"
       only_selected="false" />
    <inkscape:path-effect
       effect="bspline"
       id="path-effect5475"
       is_visible="true"
       lpeversion="1"
       weight="33.333333"
       steps="2"
       helper_size="0"
       apply_no_weight="true"
       apply_with_weight="true"
       only_selected="false" />
    <inkscape:path-effect
       effect="bspline"
       id="path-effect5471"
       is_visible="true"
       lpeversion="1"
       weight="33.333333"
       steps="2"
       helper_size="0"
       apply_no_weight="true"
       apply_with_weight="true"
       only_selected="false" />
    <inkscape:path-effect
       effect="bspline"
       id="path-effect5467"
       is_visible="true"
       lpeversion="1"
       weight="33.333333"
       steps="2"
       helper_size="0"
       apply_no_weight="true"
       apply_with_weight="true"
       only_selected="false" />
    <inkscape:path-effect
       effect="bspline"
       id="path-effect5463"
       is_visible="true"
       lpeversion="1"
       weight="33.333333"
       steps="2"
       helper_size="0"
       apply_no_weight="true"
       apply_with_weight="true"
       only_selected="false" />
    <inkscape:path-effect
       effect="bspline"
       id="path-effect5467-6"
       is_visible="true"
       lpeversion="1"
       weight="33.333333"
       steps="2"
       helper_size="0"
       apply_no_weight="true"
       apply_with_weight="true"
       only_selected="false" />
    <inkscape:path-effect
       effect="bspline"
       id="path-effect5475-7"
       is_visible="true"
       lpeversion="1"
       weight="33.333333"
       steps="2"
       helper_size="0"
       apply_no_weight="true"
       apply_with_weight="true"
       only_selected="false" />
    <inkscape:path-effect
       effect="bspline"
       id="path-effect5471-5"
       is_visible="true"
       lpeversion="1"
       weight="33.333333"
       steps="2"
       helper_size="0"
       apply_no_weight="true"
       apply_with_weight="true"
       only_selected="false" />
  </defs>
  <g
     inkscape:groupmode="layer"
     id="layer2"
     inkscape:label="背景">
    <rect
       id="rect1583"
       width="2032"
       height="1142.9"
       x="0"
       y="-386.2915"
       style="fill:#002323;fill-opacity:1;stroke-width:0.0745587" />
  </g>
  <g
     inkscape:groupmode="layer"
     id="layer3"
     inkscape:label="mountain">
    <path
       style="fill:#001a1a;fill-opacity:1;stroke:#000000;stroke-width:0.264583px;stroke-linecap:butt;stroke-linejoin:miter;stroke-opacity:1"
       d="M 237.87196,898.1715 C 415.89837,514.45986 593.92546,130.74675 713.97375,-55.501204 834.02204,-241.74916 896.08884,-230.53249 997.04658,-217.76016 c 100.95772,12.77232 240.79962,27.09952 264.19852,123.476629 23.3988,96.3771116 -69.6442,274.796511 -162.6892,453.219571"
       id="path6633"
       inkscape:path-effect="#path-effect6635"
       inkscape:original-d="M 237.87196,898.1715 C 415.89898,514.46014 593.92587,130.74694 771.95254,-252.96632 c 62.06947,11.21731 124.13627,22.43398 186.20411,33.65069 139.84765,14.32796 279.68955,28.65522 419.53415,42.98246 -93.0467,178.4268476 -186.0897,356.84627 -279.1349,535.26921" />
    <path
       style="fill:#001a1a;fill-opacity:1;stroke:#000000;stroke-width:0.264583px;stroke-linecap:butt;stroke-linejoin:miter;stroke-opacity:1"
       d="M -425.45739,350.17714 C -277.45972,112.29792 -129.46206,-125.58129 -21.22395,-180.59315 87.01416,-235.60501 155.48967,-107.7548 197.69862,99.838434 239.90756,307.43167 255.8481,594.75401 271.78887,882.08029"
       id="path6629"
       inkscape:path-effect="#path-effect6631"
       inkscape:original-d="M -425.45739,350.17714 C -277.45943,112.2981 -129.46172,-125.58108 18.535717,-363.46069 87.014233,-235.60505 155.48974,-107.75484 223.96636,20.097598 239.90777,307.43166 255.84828,594.754 271.78887,882.08029" />
    <path
       style="fill:#001f1f;fill-opacity:1;stroke:#000000;stroke-width:0.264583px;stroke-linecap:butt;stroke-linejoin:miter;stroke-opacity:1"
       d="M -102.88871,762.35235 C -70.648152,424.66107 -38.407489,86.96869 78.021289,-82.903663 194.45007,-252.77602 395.05869,-254.82815 547.64883,-84.318981 700.23897,86.190188 804.80266,429.24672 909.3681,772.30902"
       id="path5465"
       inkscape:path-effect="#path-effect5467-6"
       inkscape:original-d="M -102.88871,762.35235 C -70.647815,424.6611 -38.407185,86.968719 -6.1668153,-250.7238 194.45007,-252.77575 395.05869,-254.82788 595.67103,-256.88032 700.23907,86.190159 804.80264,429.24673 909.3681,772.30902" />
    <path
       style="fill:#002929;fill-opacity:1;stroke:#000000;stroke-width:0.264583px;stroke-linecap:butt;stroke-linejoin:miter;stroke-opacity:1"
       d="m 382.21481,774.16109 c 238.1564,-425.99347 476.31323,-851.987723 764.93689,-1025.96822 288.6236,-173.9805 627.7,-95.95025 805.8178,124.83559 178.1177,220.785828 195.2696,584.31102 212.4217,947.84196"
       id="path5473"
       inkscape:path-effect="#path-effect5475-7"
       inkscape:original-d="M 382.21481,774.16109 C 620.37179,348.16794 858.52854,-77.826356 1096.685,-503.8211 c 339.0903,78.03365 678.1667,156.06392 1017.2497,234.09549 17.1528,363.539886 34.3046,727.06508 51.4565,1090.59603" />
    <path
       style="fill:#002e2e;fill-opacity:1;stroke:#000000;stroke-width:0.264583px;stroke-linecap:butt;stroke-linejoin:miter;stroke-opacity:1"
       d="m 988.6206,765.75635 c 240.612,-280.72815 481.2246,-561.45689 685.3415,-728.837586 204.1169,-167.380694 371.7281,-221.410144 448.0196,-83.837443 76.2915,137.5727 61.2541,466.737439 58.122,646.733719 -3.132,179.99627 5.6412,210.81699 14.4145,241.63806"
       id="path5469"
       inkscape:original-d="m 988.6206,765.75635 c 240.6126,-280.72768 481.225,-561.45655 721.8371,-842.185576 167.6214,-54.032364 335.2326,-108.061824 502.8535,-162.094764 -15.0377,329.178026 -30.0751,658.34277 -45.1131,987.51303 8.7738,30.82222 17.547,61.64294 26.3201,92.46406"
       inkscape:path-effect="#path-effect5471-5"
       sodipodi:nodetypes="ccccc" />
  </g>
  <g
     inkscape:label="logo"
     inkscape:groupmode="layer"
     id="layer1">
    <path
       style="fill:#ffffff;fill-opacity:0.33;stroke-width:0.22288"
       d="m 633.1299,159.03655 c -4.16577,-0.20597 -6.38653,-0.61595 -10.0502,-1.85532 -8.65945,-2.92945 -15.60791,-7.37979 -22.82119,-14.61653 -9.99869,-10.03105 -16.78613,-22.99599 -19.02721,-36.34443 -0.68803,-4.0981 -0.83687,-7.218885 -0.78655,-16.488481 0.0274,-5.087207 -0.0211,-9.700807 -0.10933,-10.252449 -0.13809,-0.869395 0.0192,-1.542156 1.17653,-5.052345 1.29196,-3.916698 2.58329,-7.252655 4.01898,-10.382029 0.52404,-1.142384 0.79997,-1.504451 1.14623,-1.504451 0.64654,0 1.60578,-1.139313 2.21231,-2.627552 1.20598,-2.95923 2.5372,-5.616362 2.87289,-5.734662 0.19841,-0.06982 0.63585,-0.709201 0.97229,-1.420727 0.77189,-1.632749 2.39891,-3.407729 6.97772,-7.612167 3.05489,-2.805139 3.64577,-3.260905 3.70584,-2.858338 0.0671,0.448811 0.13461,0.425715 1.07459,-0.367693 2.68244,-2.264268 7.27715,-4.754803 14.3463,-7.776382 3.03214,-1.296078 4.05326,-1.64325 4.27987,-1.45521 0.22033,0.182911 0.92687,0.12655 2.72449,-0.217372 3.24696,-0.621202 3.50947,-0.59318 2.08663,0.222765 -0.65504,0.37561 -1.15659,0.715575 -1.11441,0.755517 0.0423,0.03988 0.59776,-0.0118 1.23486,-0.112546 0.64766,-0.103417 1.7778,-0.09562 2.56323,0.01802 0.77245,0.111665 1.55509,0.211484 1.73896,0.221728 0.19493,0.0118 0.12523,0.102682 -0.16729,0.22017 -0.27575,0.110795 -0.50142,0.305103 -0.50142,0.431646 0,0.337859 1.98489,0.281207 4.36561,-0.12463 1.64193,-0.279895 2.31964,-0.303377 3.21453,-0.111379 1.54616,0.331586 1.58635,0.322479 1.4244,-0.322741 l -0.14213,-0.565935 0.86221,0.339214 c 0.47428,0.186555 2.21616,0.751671 3.87108,1.2558 1.6548,0.504141 4.25474,1.510208 5.77749,2.235716 l 2.76862,1.319087 1.31682,-0.337375 c 1.57977,-0.404719 2.18148,-0.419348 3.31238,-0.0806 0.54056,0.16192 0.91008,0.429723 0.99952,0.72436 0.20825,0.68529 0.71439,1.196164 2.16119,2.181361 1.5191,1.034582 2.02314,1.024295 1.14163,-0.02336 l -0.62616,-0.744162 0.65655,0.34015 c 1.15002,0.595872 4.22329,2.890328 6.29412,4.699014 1.98111,1.730371 4.5953,4.571152 6.32329,6.871175 1.91511,2.549231 4.44953,7.307889 5.20105,9.765459 l 0.17052,0.55722 -0.47898,-0.55722 -0.47898,-0.557184 0.10936,2.228796 c 0.0835,1.680398 0.27556,2.718916 0.78361,4.220796 0.89961,2.659293 0.84095,2.982561 -0.0835,0.459669 -1.39137,-3.797702 -3.21048,-7.277217 -3.43694,-6.574103 -0.16479,0.511437 -0.49115,0.639006 -1.29911,0.507884 -0.57596,-0.09343 -0.77345,-0.03156 -0.89307,0.280183 -0.217,0.565333 0.2835,2.759494 0.74588,3.270434 0.35745,0.395065 0.40775,0.39945 0.65796,0.05727 0.23873,-0.326461 0.32596,-0.263025 0.7323,0.533541 0.25352,0.497252 0.46117,1.17148 0.46117,1.498301 0,0.32681 0.21054,1.490983 0.4679,2.587025 0.25724,1.096068 0.42867,2.031915 0.38099,2.079672 -0.0473,0.04771 -0.3321,-0.310036 -0.63191,-0.79511 -0.80602,-1.30413 -1.16739,-1.163256 -0.73932,0.288157 0.4817,1.633323 0.92122,2.64333 1.36207,3.130418 0.35403,0.391337 0.35353,0.429478 -0.0121,0.632147 -0.45474,0.254441 -0.50765,1.385196 -0.14407,3.079991 0.23481,1.094651 0.35614,1.216652 1.13402,1.14001 0.31459,-0.03094 0.23652,0.355546 -0.50041,2.481707 -0.48019,1.385134 -0.88321,2.969767 -0.89568,3.521397 l -0.0221,1.002951 -0.34274,-0.835789 c -0.45553,-1.110044 -0.72817,-1.05636 -0.72817,0.143334 0,0.664737 -0.10685,1.020332 -0.33441,1.107435 -0.21459,0.08237 -0.33552,0.429865 -0.33763,0.971072 0,1.518167 -0.61872,3.498963 -2.00224,6.471427 -0.7486,1.60855 -1.42145,3.296741 -1.4954,3.751516 l -0.1341,0.826872 -0.59767,-0.732364 -0.59789,-0.732364 -0.81631,1.305309 c -0.67415,1.077514 -0.81932,1.520414 -0.8321,2.538094 -0.0121,0.67806 -0.11056,1.43341 -0.22707,1.67858 -0.16187,0.34139 -0.18732,0.2487 -0.10935,-0.39593 l 0.10191,-0.84167 -0.59981,0.43484 c -0.32998,0.23916 -1.25183,1.10348 -2.04859,1.9207 -4.26877,4.37835 -9.41177,7.32844 -15.37861,8.82166 -1.89225,0.47354 -2.60313,0.5291 -6.68638,0.52259 -3.82995,-0.006 -4.91157,-0.084 -6.68638,-0.48148 -3.7361,-0.83669 -5.36827,-1.45853 -6.35615,-2.42139 -0.49248,-0.48012 -1.87525,-1.66519 -3.07267,-2.63348 -5.19347,-4.19969 -8.13691,-8.324928 -9.46737,-13.26826 -0.51975,-1.930971 -0.57472,-2.533826 -0.58243,-6.367622 l -0.0124,-4.23471 0.68586,-1.337276 c 0.37718,-0.735491 0.86364,-1.888917 1.08063,-2.563108 0.64353,-1.998672 1.63613,-3.834079 2.65166,-4.903337 0.52391,-0.551642 1.27319,-1.517668 1.66497,-2.146735 1.35023,-2.167585 4.20695,-4.443442 7.03363,-5.603368 2.2087,-0.906293 3.44681,-1.174473 6.03599,-1.307396 4.68552,-0.240526 8.4,1.093645 12.40468,4.455581 1.552,1.302934 1.99044,2.021492 0.59257,0.971479 -1.07124,-0.804765 -3.18073,-1.816535 -4.97356,-2.385472 -2.1661,-0.687349 -6.25938,-0.860686 -8.64953,-0.366292 -7.3925,1.52905 -12.91402,6.800477 -14.76467,14.096055 -0.37607,1.482475 -0.54541,2.763916 -0.54541,4.127319 0,1.776087 0.21165,2.465749 0.52106,1.698748 0.0625,-0.153236 0.12051,0.179375 0.13002,0.739143 0.0658,3.812728 1.95606,8.610324 4.78552,12.146641 4.65056,5.8126 12.06348,9.18152 18.41157,8.3674 1.06854,-0.13699 2.53385,-0.45563 3.25589,-0.708 0.72215,-0.25238 1.6776,-0.48768 2.12297,-0.52291 1.24435,-0.0984 3.50455,-1.28519 4.96956,-2.60929 0.86507,-0.78185 1.18368,-0.98359 0.92161,-0.58375 -0.38945,0.59443 -0.38844,0.61107 0.0362,0.61107 0.24005,0 1.12919,-0.49488 1.97589,-1.09974 1.9795,-1.4142 6.57832,-5.458692 6.93376,-6.097936 0.1503,-0.270406 0.27676,-0.953111 0.28109,-1.517072 0.0121,-1.63128 0.34558,-2.287888 1.42665,-2.813144 0.90012,-0.437289 1.00585,-0.590842 1.75445,-2.548092 0.80605,-2.107634 1.29096,-4.162924 1.27648,-5.411171 l -0.0121,-0.683434 -0.33863,0.557208 -0.33864,0.557196 0.1488,-0.668638 c 0.26378,-1.185842 0.37968,-12.175344 0.1337,-12.681852 -0.12495,-0.257421 -0.34115,-1.32054 -0.48009,-2.36249 -0.49557,-3.714012 -2.65654,-9.066321 -5.13273,-12.712713 -2.4605,-3.623196 -5.9086,-7.294297 -9.10338,-9.691972 -4.35791,-3.270652 -9.81948,-5.105687 -16.88418,-5.672822 -2.76665,-0.222088 -7.43478,-0.02659 -8.42365,0.353073 -0.19673,0.07553 -0.48187,0.03714 -0.6335,-0.0851 -0.35339,-0.285053 -2.67404,0.02162 -4.62191,0.61078 -0.79674,0.240997 -2.40153,0.980064 -3.56607,1.642384 -1.16459,0.662327 -2.79436,1.426131 -3.62172,1.697332 -0.91849,0.301053 -1.50452,0.616234 -1.50452,0.809237 0,0.173883 0.0242,0.314967 0.0559,0.313502 0.0311,-0.0012 0.6074,-0.150701 1.28165,-0.331676 1.56235,-0.419392 1.58702,-0.415466 0.75138,0.120011 -0.4401,0.281971 -1.41755,0.534884 -2.64937,0.685572 -2.36519,0.289289 -3.32859,0.612171 -4.85063,1.625658 -1.55324,1.03417 -3.29332,2.806467 -2.75548,2.806467 0.21741,0 0.61186,-0.115915 0.87662,-0.257596 0.46812,-0.250539 0.4716,-0.242911 0.12554,0.278604 -0.25389,0.382592 -0.6466,0.578131 -1.37091,0.682529 -1.41532,0.203986 -3.72043,1.47232 -5.9525,3.275242 -3.33121,2.690626 -9.05418,8.91593 -10.224,11.121295 -0.24321,0.458153 -0.21737,0.501499 0.29886,0.501499 0.31084,0 0.56502,0.07281 0.56502,0.161858 0,0.08908 -1.01079,2.178567 -2.24623,4.643442 l -2.24634,4.481556 -0.67139,6.221937 c -0.44763,4.148503 -0.68231,7.521726 -0.7043,10.122314 -0.036,4.270839 0.20524,5.929492 1.09951,7.554732 0.48701,0.88506 0.52515,1.14663 0.39519,2.70579 -0.13622,1.63405 -0.10808,1.79262 0.5333,2.97633 0.48757,0.9003 0.58957,1.25031 0.3642,1.25031 -0.17207,0 -0.31283,0.0846 -0.31283,0.18798 0,0.3858 0.85289,2.64799 1.42104,3.76913 0.65517,1.2931 1.18784,1.71756 2.42836,1.93517 0.4623,0.0811 1.17889,0.44446 1.59236,0.80748 0.69399,0.60938 2.31587,3.40445 2.69101,4.63782 l 0.16064,0.52791 -0.71972,-0.41649 c -0.39583,-0.22904 -0.83165,-0.59197 -0.96857,-0.80648 -0.1369,-0.21453 -0.32699,-0.39005 -0.42241,-0.39005 -0.50322,0 1.00465,3.2934 2.41819,5.2817 0.68355,0.96139 0.71722,1.08254 0.39893,1.43429 -0.46876,0.51801 -0.25209,1.08778 0.82251,2.16229 0.5077,0.50781 0.77444,0.92506 0.62349,0.97537 -0.63846,0.21281 0.33234,1.95276 3.4409,6.16689 1.31916,1.78829 1.7402,2.22574 1.85488,1.92698 0.11057,-0.28652 0.33346,0.009 0.86333,1.14113 0.39322,0.84023 1.18064,2.15456 1.74978,2.92068 0.98595,1.32721 1.07963,1.39308 1.98259,1.39452 0.8204,0.001 1.01453,0.0996 1.44551,0.73282 0.7409,1.08841 1.80308,2.04387 3.21106,2.88845 l 1.25717,0.75417 -0.41645,0.54179 c -0.22896,0.29801 -0.41868,0.59856 -0.42141,0.66795 0,0.0693 0.55397,0.3578 1.23716,0.64094 0.68307,0.28314 1.52852,0.75593 1.87874,1.05063 0.62361,0.52472 3.82801,2.11742 3.97138,1.97393 0.0403,-0.04 -0.0932,-0.40801 -0.29631,-0.81778 -0.2691,-0.54337 0.16388,-0.19202 1.59945,1.29789 3.34499,3.47162 4.95468,4.2158 11.69169,5.40548 1.42495,0.25165 2.82909,0.5529 3.12036,0.66941 0.63294,0.2534 0.83314,0.25311 -4.1544,0.006 z m 7.91554,-42.25006 c -6.66335,-1.24798 -12.37545,-4.0706 -16.74087,-8.27246 -1.05553,-1.01606 -2.34593,-2.47333 -2.86717,-3.23839 -0.82077,-1.2044 -0.5295,-0.95747 2.17106,1.84075 1.71543,1.77747 3.4319,3.41294 3.81449,3.63439 0.86147,0.49878 0.90104,0.2988 0.0783,-0.39386 -0.33966,-0.2858 -1.11125,-1.15691 -1.7146,-1.9358 l -1.09716,-1.41618 1.32463,1.23174 c 2.3317,2.16827 6.1047,4.59826 6.2877,4.04952 0.0534,-0.1601 0.54019,0.1264 1.20884,0.71126 0.61572,0.53864 1.64287,1.23561 2.28264,1.54884 1.67833,0.82182 5.30907,1.4931 8.90832,1.64703 2.30194,0.0985 2.96996,0.18801 2.56915,0.34444 -0.58783,0.22941 -5.31886,0.41844 -6.22506,0.24872 z m -20.52516,-9.53761 c -1.73528,-2.07231 -2.87722,-3.90215 -2.87722,-4.61008 0,-0.44703 0.0795,-0.65435 0.20138,-0.52604 0.33744,0.35466 3.42679,5.6855 3.33715,5.75805 -0.046,0.0372 -0.34376,-0.24261 -0.66131,-0.62193 z m 0.12635,-5.76021 -0.35114,-0.72435 0.45686,0.52617 c 0.25121,0.28939 0.45677,0.61536 0.45677,0.72437 0,0.38962 -0.21698,0.18661 -0.56249,-0.52619 z m 21.67492,-1.700976 c -2.39133,-0.62362 -2.39507,-0.917839 -0.0124,-0.917839 1.11242,0 2.36102,-0.05865 2.77473,-0.130233 l 0.75227,-0.130233 -0.83253,0.798813 c -0.45793,0.439362 -0.90917,0.793038 -1.00298,0.785978 -0.0932,-0.007 -0.84979,-0.19003 -1.6802,-0.406576 z m 9.78172,-4.549195 c -0.39045,-0.285494 -0.37304,-0.320867 0.29175,-0.596263 0.38874,-0.161018 0.85514,-0.579515 1.03633,-0.930003 0.18129,-0.350496 0.37909,-0.637251 0.43976,-0.637251 0.1338,0 -0.63815,1.515392 -1.05405,2.06932 -0.25805,0.343576 -0.35513,0.356393 -0.71379,0.09417 z m -1.02835,-0.632853 c 0,-0.339008 1.51165,-2.867926 1.71437,-2.867926 0.0664,0 -0.0473,0.254843 -0.25121,0.566376 -0.20412,0.311483 -0.6168,1.028495 -0.91721,1.593332 -0.30031,0.564846 -0.54595,0.883543 -0.54595,0.708218 z m 4.87599,-10.165188 c -0.30846,-0.904331 -0.28803,-1.342507 0.0845,-1.795616 0.36237,-0.440661 0.604,0.0897 0.60802,1.334654 0,1.327262 -0.32241,1.544802 -0.69233,0.460962 z M 579.41134,71.160374 c -0.18624,-0.461643 0.23039,-2.060927 0.59553,-2.28663 0.2545,-0.157249 0.0771,1.374821 -0.25934,2.247644 -0.16251,0.420745 -0.18139,0.422931 -0.33619,0.03902 z m 3.1385,-10.50449 c 0.17816,-0.426573 0.32402,-1.029538 0.32402,-1.339947 0,-0.449073 0.11057,-0.564365 0.54168,-0.564365 0.48688,0 0.52304,0.06187 0.35756,0.612942 -0.30967,1.030692 -0.45186,1.266559 -1.00981,1.674247 l -0.53759,0.392704 z M 634.9162,32.897599 c -0.39502,-0.169742 -0.37602,-0.193347 0.16717,-0.207224 0.33706,-0.0089 0.6128,0.08457 0.6128,0.207224 0,0.261595 -0.1712,0.261595 -0.77997,0 z"
       id="path2377" />
    <path
       style="display:inline;fill:#fefefe;fill-opacity:0.330095;stroke-width:0.128929"
       d="m 650.74544,162.74579 c -10.6703,-3.92298 -17.48565,-13.8067 -17.24158,-25.00386 0.0882,-4.04147 1.3624,-8.78601 3.32574,-12.38347 2.31367,-4.23936 6.01331,-7.85881 10.48933,-10.26206 9.62492,-5.16777 21.51939,-3.79873 29.71664,3.4203 3.56763,3.14191 5.95338,6.72408 7.43033,11.15683 1.25011,3.75118 1.62617,7.27007 1.21088,11.32683 -0.16962,1.65658 -1.33926,6.01946 -2.05194,7.65358 -2.29819,5.26975 -6.19399,9.60304 -11.12374,12.37331 -4.72639,2.65594 -10.02361,3.73445 -15.46047,3.14757 -1.5187,-0.16397 -5.00959,-0.95643 -6.29519,-1.42903 z m 4.47749,-2.16015 c 9.84816,1.75184 19.52519,-2.75758 24.39615,-11.36836 1.72205,-3.04435 2.5621,-5.84306 2.79229,-9.30238 0.21882,-3.29063 -0.44146,-7.28946 -1.68513,-10.20489 l -0.33059,-0.77494 -1.82517,-0.57751 c -4.05385,-1.28267 -8.02983,-1.70339 -11.11851,-1.17649 l -1.16417,0.19859 0.54025,0.15981 0.54032,0.15982 -0.45752,1.31145 c -0.57787,1.65654 -1.49458,3.61971 -2.30948,4.94596 -1.68776,2.74686 -4.31281,4.84246 -6.15801,4.91601 -0.80997,0.0322 -1.90334,-0.40714 -2.19446,-0.88214 -0.30705,-0.50064 -0.4986,-1.46378 -0.47707,-2.39785 0.0252,-1.1073 0.71832,-3.37322 1.37635,-4.50193 1.05695,-1.81314 3.39904,-4.10981 5.51291,-5.40626 1.2461,-0.76406 7.65209,-4.03367 10.00269,-5.10517 l 1.00868,-0.45989 -0.95918,-0.68602 c -2.15311,-1.54005 -4.26752,-2.57747 -6.53775,-3.20784 -1.87507,-0.52061 -1.65233,-0.58682 -3.37822,1.00401 -2.51358,2.31688 -5.20175,6.12802 -7.05003,9.99506 -0.4005,0.83769 -0.7332,1.7966 -1.14357,3.29547 -0.50785,1.85486 -0.58029,2.26935 -0.59146,3.38138 -0.0302,3.00448 0.96923,5.58262 2.59326,6.69001 1.13281,0.77237 2.9753,0.73708 4.63296,-0.0889 0.96387,-0.48024 2.55041,-1.83316 3.37336,-2.87664 1.37738,-1.74635 2.76922,-4.92685 3.46118,-7.90862 l 0.40484,-1.7438 0.62405,0.2391 c 0.45976,0.17613 0.65111,0.32146 0.72647,0.5519 0.0573,0.17519 0.23421,0.34936 0.40211,0.39583 0.58512,0.16199 2.15536,3.4676 2.84237,5.98356 0.38502,1.4098 0.62737,3.49479 0.58975,5.07116 -0.0252,1.04761 -0.1155,1.50743 -0.75053,3.80123 -0.78257,2.82869 -1.17111,3.69907 -2.47786,5.54963 -2.59823,3.67959 -7.02804,6.67503 -12.04598,8.14565 -2.24024,0.6566 -7.07511,1.39573 -7.80597,1.19335 -0.13823,-0.038 -0.18451,-0.005 -0.12908,0.0929 0.0805,0.14289 1.75824,0.83342 2.87435,1.18336 0.27083,0.085 1.12356,0.26662 1.8949,0.40389 z M 653.3901,147.9717 c 4.48494,0.63479 8.66656,-0.005 11.45302,-1.75344 2.3842,-1.49585 3.90445,-3.47369 4.81442,-6.26474 0.61651,-1.89084 0.79035,-3.37082 0.67506,-5.74834 -0.0885,-1.80871 -0.47576,-4.18589 -0.5646,-3.45975 -0.32535,2.65738 -1.4482,6.71575 -2.30657,8.33656 -1.82585,3.44751 -4.67659,5.57381 -7.72358,5.76085 -1.79349,0.1101 -4.45184,-0.53681 -6.03788,-1.46926 -2.78582,-1.63793 -5.59481,-5.59496 -6.61273,-9.31564 -0.98694,-3.60743 -1.35784,-8.37878 -1.06702,-13.72749 0.0221,-0.40588 -0.0895,-0.34291 -1.41393,0.80004 -2.09236,1.80547 -4.1544,4.43811 -5.51078,7.03625 -0.54485,1.04339 -0.74686,1.60891 -1.34867,3.77385 -0.60801,2.18761 -0.71884,2.74141 -0.78686,3.92926 -0.0919,1.60246 -0.0746,2.68575 0.0659,4.26092 l 0.10063,1.1268 0.64256,0.39994 c 2.5946,1.61461 6.3341,3.51744 8.80981,4.48284 1.73221,0.67541 5.16483,1.59846 6.81062,1.83139 z m 4.9271,-13.14412 c 1.19902,-0.57994 3.16333,-2.50478 4.22327,-4.1384 0.64306,-0.99101 1.37497,-2.44459 1.29882,-2.57917 -0.0252,-0.0451 -0.3813,0.0252 -0.79057,0.15635 -0.80765,0.2586 -1.29173,0.74134 -1.50069,1.49619 -0.18813,0.67946 -1.21842,2.15948 -1.96672,2.82502 -0.37847,0.33663 -1.07839,0.79676 -1.55526,1.02257 -0.47717,0.22582 -0.88773,0.4838 -0.91248,0.57328 -0.0604,0.2196 0.27042,0.78513 0.49658,0.84768 0.10071,0.0277 0.41832,-0.0639 0.70705,-0.20357 z"
       id="path12817" />
    <text
       xml:space="preserve"
       style="font-style:normal;font-weight:normal;font-size:132.292px;line-height:1.25;font-family:sans-serif;letter-spacing:0px;word-spacing:0px;fill:#ffffff;fill-opacity:0.33;stroke:none;stroke-width:0.264583"
       x="695.06213"
       y="141.13228"
       id="text502"><tspan
         sodipodi:role="line"
         id="tspan500"
         style="font-size:132.292px;fill:#ffffff;fill-opacity:0.33;stroke-width:0.264583"
         x="695.06213"
         y="141.13228">DebianDDE</tspan></text>
  </g>
</svg>
