<?xml version="1.0" encoding="UTF-8" standalone="no"?>
<!-- Created with Inkscape (http://www.inkscape.org/) -->

<svg
   width="5760"
   height="4320"
   viewBox="0 0 1524 1143"
   version="1.1"
   id="svg5"
   inkscape:version="1.2.1 (9c6d41e410, 2022-07-14)"
   sodipodi:docname="wallpaper-green-4.3.svg"
   xmlns:inkscape="http://www.inkscape.org/namespaces/inkscape"
   xmlns:sodipodi="http://sodipodi.sourceforge.net/DTD/sodipodi-0.dtd"
   xmlns="http://www.w3.org/2000/svg"
   xmlns:svg="http://www.w3.org/2000/svg">
  <sodipodi:namedview
     id="namedview7"
     pagecolor="#505050"
     bordercolor="#ffffff"
     borderopacity="1"
     inkscape:showpageshadow="0"
     inkscape:pageopacity="0"
     inkscape:pagecheckerboard="1"
     inkscape:deskcolor="#505050"
     inkscape:document-units="mm"
     showgrid="false"
     inkscape:zoom="0.13630051"
     inkscape:cx="2997.0541"
     inkscape:cy="2193.6822"
     inkscape:window-width="1600"
     inkscape:window-height="836"
     inkscape:window-x="0"
     inkscape:window-y="0"
     inkscape:window-maximized="1"
     inkscape:current-layer="layer1" />
  <defs
     id="defs2">
    <inkscape:path-effect
       effect="bspline"
       id="path-effect6635"
       is_visible="true"
       lpeversion="1"
       weight="33.333333"
       steps="2"
       helper_size="0"
       apply_no_weight="true"
       apply_with_weight="true"
       only_selected="false" />
    <inkscape:path-effect
       effect="bspline"
       id="path-effect6631"
       is_visible="true"
       lpeversion="1"
       weight="33.333333"
       steps="2"
       helper_size="0"
       apply_no_weight="true"
       apply_with_weight="true"
       only_selected="false" />
    <inkscape:path-effect
       effect="bspline"
       id="path-effect5475"
       is_visible="true"
       lpeversion="1"
       weight="33.333333"
       steps="2"
       helper_size="0"
       apply_no_weight="true"
       apply_with_weight="true"
       only_selected="false" />
    <inkscape:path-effect
       effect="bspline"
       id="path-effect5471"
       is_visible="true"
       lpeversion="1"
       weight="33.333333"
       steps="2"
       helper_size="0"
       apply_no_weight="true"
       apply_with_weight="true"
       only_selected="false" />
    <inkscape:path-effect
       effect="bspline"
       id="path-effect5467"
       is_visible="true"
       lpeversion="1"
       weight="33.333333"
       steps="2"
       helper_size="0"
       apply_no_weight="true"
       apply_with_weight="true"
       only_selected="false" />
    <inkscape:path-effect
       effect="bspline"
       id="path-effect5463"
       is_visible="true"
       lpeversion="1"
       weight="33.333333"
       steps="2"
       helper_size="0"
       apply_no_weight="true"
       apply_with_weight="true"
       only_selected="false" />
    <inkscape:path-effect
       effect="bspline"
       id="path-effect5467-6"
       is_visible="true"
       lpeversion="1"
       weight="33.333333"
       steps="2"
       helper_size="0"
       apply_no_weight="true"
       apply_with_weight="true"
       only_selected="false" />
    <inkscape:path-effect
       effect="bspline"
       id="path-effect5475-7"
       is_visible="true"
       lpeversion="1"
       weight="33.333333"
       steps="2"
       helper_size="0"
       apply_no_weight="true"
       apply_with_weight="true"
       only_selected="false" />
    <inkscape:path-effect
       effect="bspline"
       id="path-effect5471-5"
       is_visible="true"
       lpeversion="1"
       weight="33.333333"
       steps="2"
       helper_size="0"
       apply_no_weight="true"
       apply_with_weight="true"
       only_selected="false" />
  </defs>
  <g
     inkscape:groupmode="layer"
     id="layer2"
     inkscape:label="背景">
    <rect
       id="rect1583"
       width="2032"
       height="1142.9"
       x="0"
       y="-2.8421709e-14"
       style="fill:#002323;fill-opacity:1;stroke-width:0.0745587" />
  </g>
  <g
     inkscape:groupmode="layer"
     id="layer3"
     inkscape:label="mountain">
    <path
       style="fill:#001a1a;fill-opacity:1;stroke:#000000;stroke-width:0.264583px;stroke-linecap:butt;stroke-linejoin:miter;stroke-opacity:1"
       d="M 226.23022,1284.465 C 404.25702,900.75195 582.2839,517.03874 702.3321,330.79069 822.3803,144.54263 884.4471,155.7593 985.40451,168.5316 c 100.95739,12.7723 240.79929,27.09953 264.19819,123.47668 23.3988,96.37715 -69.6443,274.7966 -162.6892,453.21967"
       id="path6633"
       inkscape:path-effect="#path-effect6635"
       inkscape:original-d="M 226.23022,1284.465 C 404.25724,900.75205 582.28413,517.03885 760.3108,133.32547 c 62.06947,11.21731 124.13627,22.43398 186.20411,33.65069 139.84699,14.32796 279.68889,28.65522 419.53349,42.98246 -93.0467,178.42691 -186.0897,356.84639 -279.1349,535.26933" />
    <path
       style="fill:#001a1a;fill-opacity:1;stroke:#000000;stroke-width:0.264583px;stroke-linecap:butt;stroke-linejoin:miter;stroke-opacity:1"
       d="M -437.09913,736.46905 C -289.10146,498.58983 -141.10374,260.71054 -32.865645,205.69867 75.372448,150.6868 143.84792,278.53699 186.05686,486.13029 c 42.20893,207.59329 58.14945,494.91563 74.09027,782.24341"
       id="path6629"
       inkscape:path-effect="#path-effect6631"
       inkscape:original-d="M -437.09913,736.46905 C -289.10117,498.59001 -141.10346,260.71071 6.8940448,22.831142 75.372559,150.68674 143.848,278.53695 212.32462,406.38946 c 15.94141,287.33411 31.88192,574.65645 47.82251,861.98424" />
    <path
       style="fill:#001f1f;fill-opacity:1;stroke:#000000;stroke-width:0.264583px;stroke-linecap:butt;stroke-linejoin:miter;stroke-opacity:1"
       d="M -114.53045,1148.6451 C -82.289819,810.95298 -50.049163,473.26059 66.379582,303.38818 182.80833,133.51577 383.41695,131.46364 536.00706,301.97287 688.59717,472.48211 793.16077,815.53868 897.72636,1158.6018"
       id="path5465"
       inkscape:path-effect="#path-effect5467-6"
       inkscape:original-d="M -114.53045,1148.6451 C -82.289489,810.95301 -50.048859,473.26062 -17.808487,135.56799 182.80833,133.51604 383.41695,131.46391 584.02929,129.41147 688.59733,472.48206 793.1609,815.53864 897.72636,1158.6018" />
    <path
       style="fill:#002929;fill-opacity:1;stroke:#000000;stroke-width:0.264583px;stroke-linecap:butt;stroke-linejoin:miter;stroke-opacity:1"
       d="M 370.57307,1160.4539 C 608.72956,734.45958 846.88614,308.46508 1135.5095,134.48466 c 288.6234,-173.980424 627.6998,-95.950206 805.8176,124.83566 178.1177,220.78587 195.2695,584.31107 212.4217,947.84318"
       id="path5473"
       inkscape:path-effect="#path-effect5475-7"
       inkscape:original-d="M 370.57307,1160.4539 C 608.73005,734.45985 846.8868,308.46545 1085.0426,-117.52919 c 339.0903,78.033611 678.1667,156.063838 1017.2497,234.09537 17.1528,363.54 34.3046,727.0652 51.4565,1090.59732" />
    <path
       style="fill:#002e2e;fill-opacity:1;stroke:#000000;stroke-width:0.264583px;stroke-linecap:butt;stroke-linejoin:miter;stroke-opacity:1"
       d="M 976.97886,1152.0491 C 1217.5908,871.32055 1458.203,590.59156 1662.3198,423.21072 c 204.1168,-167.38085 371.728,-221.4103 448.0195,-83.83755 76.2915,137.57276 61.2541,466.73751 58.1221,646.73424 -3.1321,179.99669 5.6411,210.81769 14.4144,241.63889"
       id="path5469"
       inkscape:original-d="M 976.97886,1152.0491 C 1217.5908,871.32058 1458.2032,590.59171 1698.8153,309.86258 1866.4367,255.8302 2034.0479,201.80074 2201.6688,147.7678 c -15.0377,329.17814 -30.0751,658.34289 -45.1131,987.5139 8.7738,30.8224 17.547,61.6433 26.3201,92.4646"
       inkscape:path-effect="#path-effect5471-5"
       sodipodi:nodetypes="ccccc" />
  </g>
  <g
     inkscape:label="logo"
     inkscape:groupmode="layer"
     id="layer1">
    <path
       style="fill:#ffffff;fill-opacity:0.33;stroke-width:0.221539"
       d="m 103.44119,156.23415 c -4.140721,-0.20474 -6.348131,-0.61224 -9.989756,-1.84416 -8.607383,-2.91184 -15.51406,-7.33543 -22.683961,-14.52865 -9.938573,-9.97073 -16.685205,-22.85771 -18.912802,-36.12586 -0.683893,-4.073455 -0.831836,-7.175479 -0.781822,-16.389333 0.02717,-5.056621 -0.021,-9.642479 -0.108678,-10.190805 -0.137269,-0.864167 0.01915,-1.532883 1.169462,-5.021968 1.284185,-3.893147 2.567753,-7.209045 3.994817,-10.319604 0.520886,-1.135513 0.795159,-1.495404 1.139329,-1.495404 0.642649,0 1.596124,-1.132464 2.199008,-2.611753 1.19873,-2.941437 2.521938,-5.582591 2.855612,-5.700181 0.197215,-0.0694 0.632026,-0.704935 0.966441,-1.412183 0.767251,-1.622932 2.384492,-3.387241 6.935761,-7.566398 3.036525,-2.788272 3.623849,-3.241298 3.683557,-2.841151 0.06668,0.446113 0.133796,0.423155 1.068138,-0.365483 2.666298,-2.250653 7.233373,-4.726214 14.260023,-7.729624 3.01391,-1.288285 4.028884,-1.63337 4.254127,-1.446459 0.219018,0.18181 0.921313,0.125793 2.708101,-0.216068 3.227446,-0.617467 3.488382,-0.589613 2.074102,0.221427 -0.651114,0.373352 -1.149647,0.711273 -1.107719,0.750975 0.04201,0.03963 0.59418,-0.01174 1.227443,-0.111869 0.643757,-0.102796 1.767097,-0.09504 2.547807,0.01791 0.7678,0.110993 1.54574,0.210213 1.7285,0.220395 0.19376,0.01174 0.12449,0.102066 -0.16628,0.218844 -0.27408,0.110134 -0.49841,0.30327 -0.49841,0.429053 0,0.335827 1.97296,0.279515 4.33936,-0.123875 1.63205,-0.278212 2.3057,-0.301553 3.19521,-0.110712 1.53685,0.329593 1.5768,0.320541 1.41583,-0.320799 l -0.14127,-0.562532 0.85703,0.337174 c 0.47142,0.185435 2.20284,0.747152 3.8478,1.248249 1.64484,0.501109 4.22914,1.501128 5.74277,2.222273 l 2.75201,1.311156 1.30888,-0.335346 c 1.57032,-0.402286 2.16838,-0.416827 3.29252,-0.08012 0.53732,0.160949 0.90458,0.427136 0.99349,0.720003 0.20698,0.681172 0.71007,1.188973 2.14813,2.168246 1.51005,1.028361 2.01106,1.018137 1.13487,-0.02322 l -0.62238,-0.739688 0.65253,0.338108 c 1.14315,0.592288 4.19795,2.872948 6.25637,4.670757 1.96913,1.719968 4.56763,4.543667 6.28526,6.829861 1.90357,2.533903 4.42284,7.26395 5.16985,9.706742 l 0.16943,0.55387 -0.47607,-0.55387 -0.47612,-0.553833 0.10864,2.215394 c 0.0827,1.670293 0.27396,2.702568 0.77892,4.195416 0.89421,2.643305 0.83592,2.964629 -0.0827,0.456906 -1.38298,-3.774867 -3.19114,-7.233462 -3.41626,-6.534574 -0.16371,0.508364 -0.48823,0.635164 -1.29128,0.504831 -0.57252,-0.09287 -0.76881,-0.03137 -0.88773,0.278497 -0.21567,0.561936 0.28181,2.742901 0.74144,3.250771 0.35529,0.39269 0.40531,0.397049 0.65402,0.05694 0.23728,-0.324498 0.32392,-0.261442 0.72785,0.530333 0.25198,0.494262 0.45841,1.164436 0.45841,1.489292 0,0.324844 0.20925,1.482018 0.46505,2.571469 0.25576,1.089477 0.42618,2.019699 0.37876,2.06717 -0.047,0.04741 -0.33009,-0.308173 -0.62808,-0.790332 -0.8012,-1.296288 -1.16044,-1.15626 -0.7349,0.286425 0.47872,1.623503 0.91569,2.627437 1.35384,3.111595 0.35195,0.388986 0.35139,0.426897 -0.0115,0.62835 -0.45205,0.252908 -0.50465,1.376865 -0.14322,3.06147 0.2334,1.088067 0.35405,1.209335 1.12723,1.133153 0.31269,-0.03074 0.23513,0.353409 -0.49741,2.466787 -0.4773,1.376804 -0.87791,2.95191 -0.89032,3.500223 l -0.0221,0.99692 -0.34079,-0.830762 c -0.45271,-1.103371 -0.72378,-1.050009 -0.72378,0.142478 0,0.660739 -0.10616,1.014196 -0.33236,1.100776 -0.21334,0.08187 -0.33356,0.427278 -0.3356,0.965235 0,1.509037 -0.61498,3.477917 -1.99017,6.43251 -0.74416,1.598877 -1.41299,3.276923 -1.48642,3.728964 l -0.13345,0.821896 -0.59405,-0.72796 -0.59431,-0.727969 -0.81139,1.297468 c -0.67005,1.071033 -0.81437,1.511284 -0.82715,2.522836 -0.0115,0.673976 -0.10997,1.424787 -0.22568,1.668477 -0.1609,0.33935 -0.18616,0.24722 -0.10864,-0.39354 l 0.10118,-0.836614 -0.59622,0.43223 c -0.32798,0.237714 -1.24429,1.096834 -2.03624,1.909154 -4.2431,4.35201 -9.3552,7.28436 -15.28617,8.7686 -1.8809,0.4707 -2.58758,0.52593 -6.64624,0.51945 -3.80692,-0.005 -4.88204,-0.0835 -6.64617,-0.47858 -3.71363,-0.83166 -5.33599,-1.44977 -6.31793,-2.40683 -0.48952,-0.47723 -1.86398,-1.65518 -3.054185,-2.61765 -5.163041,-4.17443 -8.088795,-8.274878 -9.411245,-13.188482 -0.516625,-1.919361 -0.57127,-2.518593 -0.578926,-6.32933 l -0.0124,-4.209249 0.681734,-1.329235 c 0.374835,-0.731071 0.858365,-1.877563 1.074043,-2.5477 0.639667,-1.986652 1.626298,-3.811024 2.635716,-4.873853 0.520758,-0.548324 1.265536,-1.508543 1.654969,-2.133828 1.342099,-2.154551 4.181657,-4.416726 6.991324,-5.569675 2.19543,-0.900844 3.42608,-1.167412 5.99969,-1.299536 4.65736,-0.239078 8.3495,1.087069 12.33018,4.428791 1.54271,1.2951 1.97844,2.009336 0.58898,0.965638 -1.06486,-0.799927 -3.16162,-1.805614 -4.94372,-2.371129 -2.15307,-0.683216 -6.22174,-0.85551 -8.59752,-0.364088 -7.34803,1.519853 -12.836354,6.759585 -14.675878,14.011298 -0.373806,1.473558 -0.542122,2.747298 -0.542122,4.102502 0,1.765407 0.210369,2.450919 0.517921,1.688534 0.06209,-0.152318 0.119774,0.178297 0.129234,0.734698 0.06549,3.789797 1.944306,8.558549 4.75676,12.073605 4.622585,5.777629 11.990935,9.126309 18.300835,8.317089 1.0622,-0.13617 2.51866,-0.45291 3.23634,-0.70375 0.71785,-0.25086 1.6675,-0.48475 2.11021,-0.51977 1.23688,-0.0978 3.48357,-1.27746 4.93977,-2.59359 0.85987,-0.77714 1.17651,-0.97768 0.91606,-0.58024 -0.38714,0.59086 -0.38615,0.6074 0.0358,0.6074 0.23859,0 1.12242,-0.49191 1.96395,-1.09312 1.96764,-1.40571 6.53886,-5.425885 6.89211,-6.061282 0.14949,-0.268784 0.27514,-0.947384 0.27945,-1.507954 0.0115,-1.621465 0.34343,-2.274126 1.41805,-2.796223 0.89471,-0.434669 0.9998,-0.587292 1.74396,-2.532774 0.8012,-2.094963 1.28318,-4.13789 1.26874,-5.378634 l -0.0115,-0.679325 -0.33663,0.553858 -0.33656,0.553846 0.14782,-0.664618 c 0.26225,-1.17871 0.37741,-12.102137 0.13296,-12.605598 -0.12418,-0.255873 -0.33904,-1.312601 -0.47718,-2.348284 -0.4926,-3.691684 -2.6406,-9.011808 -5.10191,-12.636274 -2.44569,-3.601412 -5.87312,-7.250442 -9.0487,-9.633697 -4.33164,-3.250986 -9.76049,-5.074989 -16.7827,-5.638713 -2.75002,-0.220754 -7.39009,-0.02643 -8.37301,0.350949 -0.19555,0.07508 -0.47897,0.03693 -0.629684,-0.0846 -0.351268,-0.283338 -2.657962,0.02148 -4.594117,0.607108 -0.791947,0.239547 -2.387087,0.974172 -3.544631,1.632511 -1.157587,0.658343 -2.777544,1.417554 -3.599933,1.687123 -0.912971,0.299243 -1.49548,0.612528 -1.49548,0.804373 0,0.172838 0.02408,0.313074 0.05556,0.311618 0.03087,-0.0013 0.60375,-0.149804 1.273936,-0.329686 1.552964,-0.416869 1.577477,-0.412967 0.746876,0.119295 -0.437469,0.280274 -1.409036,0.531664 -2.633451,0.681449 -2.350963,0.287549 -3.308576,0.60849 -4.821466,1.615881 -1.543887,1.027954 -3.273505,2.789592 -2.738913,2.789592 0.216111,0 0.608195,-0.115209 0.871355,-0.256047 0.465315,-0.249032 0.468773,-0.24145 0.124783,0.27693 -0.252354,0.38029 -0.642711,0.574653 -1.362663,0.678422 -1.406813,0.202761 -3.698067,1.46347 -5.916712,3.255549 -3.311168,2.67445 -8.99973,8.862322 -10.162524,11.054427 -0.241733,0.455399 -0.216047,0.498484 0.297059,0.498484 0.308975,0 0.561638,0.07237 0.561638,0.160884 0,0.08854 -1.004726,2.165467 -2.23272,4.61552 l -2.232845,4.454612 -0.667347,6.184526 c -0.444938,4.123559 -0.678213,7.476492 -0.700072,10.061446 -0.0358,4.245159 0.204008,5.893844 1.092896,7.509306 0.484087,0.87974 0.521999,1.13973 0.392827,2.68953 -0.1354,1.6242 -0.107436,1.78183 0.530087,2.95841 0.48464,0.89489 0.586026,1.2428 0.362014,1.2428 -0.171037,0 -0.310952,0.0841 -0.310952,0.18686 0,0.38348 0.847769,2.63206 1.412493,3.74645 0.651231,1.28534 1.1807,1.70724 2.413759,1.92354 0.45951,0.0807 1.171809,0.44179 1.582787,0.80261 0.689822,0.60572 2.301937,3.38398 2.67482,4.60993 l 0.159676,0.52472 -0.715386,-0.41396 c -0.393441,-0.22766 -0.82665,-0.58843 -0.962737,-0.80164 -0.136078,-0.21323 -0.325029,-0.3877 -0.41987,-0.3877 -0.500201,0 0.998613,3.27359 2.403633,5.24994 0.679448,0.9556 0.712915,1.07602 0.396531,1.42566 -0.465933,0.5149 -0.250563,1.08123 0.817574,2.14929 0.504647,0.50476 0.769782,0.9195 0.61974,0.96952 -0.634621,0.21152 0.330339,1.94101 3.420212,6.12979 1.311229,1.77755 1.729742,2.21235 1.843724,1.91539 0.109902,-0.28479 0.33145,0.008 0.858139,1.13428 0.390851,0.83517 1.173539,2.1416 1.739251,2.90312 0.980027,1.31922 1.073138,1.38468 1.970672,1.38612 0.815475,8.3e-4 1.00843,0.0991 1.43682,0.72843 0.736441,1.08185 1.792228,2.03157 3.191754,2.87107 l 1.249607,0.74963 -0.413941,0.53855 c -0.227595,0.2962 -0.416166,0.59493 -0.418882,0.66391 0,0.0688 0.550647,0.35567 1.229725,0.6371 0.678954,0.28143 1.519312,0.75136 1.867434,1.04429 0.619864,0.52158 3.804992,2.1047 3.947504,1.96207 0.0401,-0.0399 -0.09263,-0.40556 -0.29453,-0.81287 -0.267482,-0.54009 0.162885,-0.19084 1.589822,1.2901 3.324878,3.45073 4.924896,4.19045 11.621388,5.37298 1.41638,0.25014 2.81208,0.54957 3.1016,0.66537 0.62913,0.25188 0.82813,0.25159 -4.12941,0.006 z m 7.86793,-41.99599 c -6.62326,-1.24049 -12.301015,-4.04613 -16.640189,-8.22272 -1.049181,-1.00995 -2.331823,-2.45845 -2.849935,-3.21891 -0.815841,-1.19716 -0.526316,-0.95171 2.158016,1.82968 1.705098,1.76678 3.411256,3.39242 3.791545,3.61254 0.85629,0.49578 0.895622,0.29699 0.07781,-0.39149 -0.337624,-0.2841 -1.104569,-1.14996 -1.704296,-1.92416 l -1.090555,-1.40767 1.316665,1.22432 c 2.317685,2.15524 6.067989,4.57061 6.249889,4.02517 0.0531,-0.15913 0.53693,0.12564 1.20157,0.70698 0.61202,0.53541 1.63298,1.22819 2.26889,1.53952 1.66824,0.81689 5.27715,1.48414 8.85476,1.63713 2.28811,0.0979 2.95211,0.18688 2.55373,0.34237 -0.5843,0.22803 -5.28691,0.41592 -6.18764,0.24724 z M 90.907388,104.7579 c -1.724845,-2.05985 -2.859914,-3.87868 -2.859914,-4.58236 0,-0.444335 0.07903,-0.65042 0.200178,-0.522874 0.335403,0.352534 3.406178,5.651314 3.317079,5.723424 -0.04572,0.037 -0.341698,-0.24116 -0.657343,-0.61819 z m 0.125594,-5.725559 -0.349031,-0.719996 0.454122,0.523007 c 0.249697,0.287643 0.454013,0.61165 0.454013,0.720005 0,0.387276 -0.215677,0.185481 -0.559104,-0.523016 z m 21.544588,-1.690753 c -2.37697,-0.619877 -2.38067,-0.912324 -0.0124,-0.912324 1.10574,0 2.34683,-0.05829 2.75806,-0.129447 l 0.74774,-0.129448 -0.82753,0.794015 c -0.45517,0.436719 -0.9037,0.788267 -0.99694,0.781247 -0.0926,-0.0074 -0.84467,-0.188887 -1.67009,-0.404134 z m 9.72295,-4.521838 c -0.38814,-0.28379 -0.37084,-0.318946 0.28996,-0.592691 0.3864,-0.16004 0.84999,-0.576023 1.03016,-0.924404 0.18012,-0.348391 0.37678,-0.633421 0.43704,-0.633421 0.13299,0 -0.63426,1.506281 -1.0477,2.056879 -0.2565,0.341502 -0.35301,0.354252 -0.70946,0.09361 z m -1.02227,-0.629055 c 0,-0.336971 1.50264,-2.850686 1.70418,-2.850686 0.0655,0 -0.0469,0.253322 -0.24969,0.562975 -0.20289,0.309612 -0.61314,1.022308 -0.91174,1.583746 -0.29848,0.561454 -0.54275,0.878235 -0.54275,0.703965 z m 4.8468,-10.104066 c -0.3067,-0.898892 -0.28639,-1.334432 0.0839,-1.784817 0.36023,-0.438012 0.60042,0.08916 0.60437,1.326629 0,1.319281 -0.32046,1.535513 -0.68816,0.458188 z M 50.045649,68.886396 c -0.185114,-0.458868 0.229015,-2.048535 0.591956,-2.27288 0.252971,-0.156302 0.07656,1.366554 -0.257789,2.234129 -0.161528,0.418215 -0.180297,0.420388 -0.334167,0.03878 z m 3.119634,-10.441328 c 0.177087,-0.424009 0.322066,-1.023347 0.322066,-1.331892 0,-0.44637 0.109902,-0.56097 0.538422,-0.56097 0.483961,0 0.519898,0.0615 0.355406,0.609255 -0.307801,1.024497 -0.449136,1.258944 -1.003736,1.664181 l -0.534346,0.390343 z M 105.21674,30.853687 c -0.39263,-0.16872 -0.37374,-0.192184 0.16616,-0.205979 0.33504,-0.0088 0.60912,0.08405 0.60912,0.205979 0,0.260023 -0.17017,0.260023 -0.77528,0 z"
       id="path2377" />
    <path
       style="display:inline;fill:#fefefe;fill-opacity:0.330095;stroke-width:0.128155"
       d="m 120.95081,159.92107 c -10.60616,-3.89938 -17.38051,-13.72367 -17.13792,-24.8535 0.0877,-4.01717 1.35422,-8.73317 3.30574,-12.30901 2.29978,-4.21387 5.97716,-7.81155 10.42624,-10.20032 9.56711,-5.1367 21.39016,-3.77591 29.53812,3.39971 3.54617,3.12302 5.91757,6.68365 7.38576,11.08974 1.24257,3.72862 1.61638,7.22635 1.20354,11.25871 -0.16857,1.64663 -1.33123,5.98327 -2.03958,7.60758 -2.28447,5.23806 -6.15678,9.54529 -11.05691,12.29889 -4.69797,2.63998 -9.96339,3.71199 -15.36762,3.12865 -1.50956,-0.16305 -4.97954,-0.95068 -6.25737,-1.42045 z m 4.45057,-2.14716 c 9.78904,1.74131 19.40789,-2.74098 24.24961,-11.29999 1.71171,-3.02605 2.54674,-5.80792 2.77546,-9.24644 0.21758,-3.27085 -0.43876,-7.24562 -1.67491,-10.14353 l -0.32861,-0.77027 -1.81422,-0.57404 c -4.02951,-1.27497 -7.9816,-1.69316 -11.05171,-1.16943 l -1.15724,0.19741 0.53706,0.15884 0.53706,0.15887 -0.45482,1.30357 c -0.57435,1.64657 -1.48559,3.59794 -2.29556,4.9162 -1.67764,2.73034 -4.28689,4.81337 -6.12098,4.88646 -0.80516,0.032 -1.89188,-0.40469 -2.18135,-0.87682 -0.30514,-0.49764 -0.49557,-1.45499 -0.4742,-2.38344 0.0253,-1.10063 0.71402,-3.35294 1.3681,-4.47487 1.05066,-1.80224 3.37859,-4.08509 5.47986,-5.37374 1.23862,-0.75947 7.60608,-4.00942 9.94253,-5.07448 l 1.00262,-0.45712 -0.95336,-0.68189 c -2.14022,-1.53079 -4.24191,-2.56198 -6.49848,-3.18854 -1.86384,-0.51749 -1.64249,-0.58329 -3.35796,0.99795 -2.49848,2.30297 -5.17052,6.09119 -7.0077,9.93495 -0.39807,0.83267 -0.72879,1.78582 -1.13667,3.27566 -0.50484,1.84371 -0.57683,2.25572 -0.58795,3.36106 -0.0296,2.98641 0.96347,5.54905 2.57776,6.64976 1.12599,0.76774 2.95736,0.73266 4.60511,-0.0885 0.95804,-0.47734 2.53502,-1.82211 3.35303,-2.85933 1.36915,-1.73585 2.75268,-4.89724 3.44046,-7.86106 l 0.40234,-1.73333 0.6203,0.23767 c 0.45705,0.17507 0.64722,0.31953 0.72217,0.5486 0.0568,0.17412 0.23272,0.34725 0.39969,0.39344 0.58158,0.161 2.14238,3.44673 2.82528,5.94757 0.38271,1.40131 0.62365,3.47378 0.58623,5.04066 -0.0247,1.04131 -0.11494,1.49836 -0.74601,3.77837 -0.77788,2.81169 -1.16416,3.67683 -2.46304,5.51627 -2.58257,3.65746 -6.98578,6.63488 -11.97359,8.09666 -2.22679,0.65265 -7.03257,1.38734 -7.75914,1.18617 -0.13738,-0.0379 -0.18331,-0.005 -0.12825,0.0923 0.0803,0.14205 1.74765,0.82841 2.85709,1.17622 0.26922,0.0845 1.11679,0.26503 1.88349,0.40147 z m -1.82174,-12.53807 c 4.45791,0.63097 8.61449,-0.005 11.38416,-1.74291 2.36993,-1.48684 3.88096,-3.45281 4.78554,-6.22706 0.61276,-1.87948 0.78558,-3.35056 0.67091,-5.71377 -0.0876,-1.79785 -0.47284,-4.16072 -0.56113,-3.43896 -0.32341,2.6414 -1.43954,6.67538 -2.29274,8.28644 -1.81488,3.42677 -4.64845,5.54029 -7.67714,5.72622 -1.78278,0.1094 -4.42512,-0.53359 -6.00162,-1.46044 -2.76916,-1.62808 -5.56124,-5.56133 -6.573,-9.25961 -0.98107,-3.58575 -1.34969,-8.32841 -1.06061,-13.64495 0.0222,-0.40345 -0.0889,-0.34085 -1.40544,0.79522 -2.07978,1.79461 -4.12943,4.41144 -5.47765,6.99394 -0.54157,1.03713 -0.74236,1.59925 -1.34055,3.75115 -0.60437,2.17446 -0.71452,2.72494 -0.78214,3.90563 -0.0913,1.59282 -0.0741,2.66961 0.0655,4.23531 l 0.10002,1.12002 0.63869,0.39753 c 2.57899,1.60491 6.29601,3.49628 8.75688,4.45588 1.72184,0.67136 5.13378,1.58886 6.76966,1.82039 z m 4.89741,-13.06509 c 1.19183,-0.57645 3.14433,-2.48971 4.19797,-4.11352 0.63919,-0.98505 1.36668,-2.42988 1.29097,-2.56367 -0.0253,-0.0448 -0.37899,0.0251 -0.78578,0.15542 -0.80281,0.25704 -1.28405,0.73687 -1.49171,1.4872 -0.18702,0.67535 -1.21107,2.14648 -1.95492,2.80801 -0.37615,0.33462 -1.0719,0.79197 -1.54593,1.01644 -0.47427,0.22446 -0.8824,0.48088 -0.90698,0.56982 -0.0605,0.21829 0.26884,0.78042 0.49366,0.8426 0.10001,0.0275 0.41573,-0.0635 0.70272,-0.20236 z"
       id="path12817" />
    <text
       xml:space="preserve"
       style="font-size:105.833px;line-height:1.25;font-family:sans-serif;letter-spacing:0px;word-spacing:0px;stroke-width:0.264583;fill:#ffffff;fill-opacity:0.33000004"
       x="175.53426"
       y="130.29716"
       id="text3539"><tspan
         sodipodi:role="line"
         id="tspan3537"
         style="fill:#ffffff;stroke-width:0.264583;fill-opacity:0.33000004"
         x="175.53426"
         y="130.29716">DebianDDE</tspan></text>
  </g>
</svg>
