<?xml version="1.0" encoding="UTF-8" standalone="no"?>
<!-- Created with Inkscape (http://www.inkscape.org/) -->

<svg
   width="7680"
   height="4320"
   viewBox="0 0 2032 1143"
   version="1.1"
   id="svg5"
   inkscape:version="1.2.2 (b0a8486541, 2022-12-01)"
   sodipodi:docname="wallpaper.svg"
   xmlns:inkscape="http://www.inkscape.org/namespaces/inkscape"
   xmlns:sodipodi="http://sodipodi.sourceforge.net/DTD/sodipodi-0.dtd"
   xmlns="http://www.w3.org/2000/svg"
   xmlns:svg="http://www.w3.org/2000/svg">
  <sodipodi:namedview
     id="namedview7"
     pagecolor="#505050"
     bordercolor="#ffffff"
     borderopacity="1"
     inkscape:showpageshadow="0"
     inkscape:pageopacity="0"
     inkscape:pagecheckerboard="1"
     inkscape:deskcolor="#505050"
     inkscape:document-units="mm"
     showgrid="false"
     inkscape:zoom="0.096379012"
     inkscape:cx="2318.9696"
     inkscape:cy="2635.4286"
     inkscape:window-width="1600"
     inkscape:window-height="808"
     inkscape:window-x="0"
     inkscape:window-y="0"
     inkscape:window-maximized="1"
     inkscape:current-layer="layer2" />
  <defs
     id="defs2" />
  <g
     inkscape:groupmode="layer"
     id="layer2"
     inkscape:label="背景">
    <rect
       id="rect1583"
       width="2032"
       height="1143"
       x="0"
       y="-2.8421709e-14"
       style="stroke-width:0.074562;fill:#a80030;fill-opacity:1" />
  </g>
  <g
     inkscape:label="logo"
     inkscape:groupmode="layer"
     id="layer1">
    <ellipse
       id="path131"
       cx="1016"
       cy="503.76666"
       style="fill:#a80030;fill-opacity:1;stroke:#a80030;stroke-width:24.1046;stroke-dasharray:none;stroke-opacity:0.919447"
       rx="123.41437"
       ry="123.41436" />
    <path
       style="fill:#ffffff;fill-opacity:1;stroke-width:0.358794"
       d="m 1020.4579,605.8396 c -6.7061,-0.33158 -10.2811,-0.99156 -16.1789,-2.98672 -13.94007,-4.71584 -25.12577,-11.88006 -36.73777,-23.52984 -16.096,-16.14808 -27.0225,-37.01916 -30.6302,-58.50758 -1.1076,-6.59716 -1.3472,-11.62104 -1.2662,-26.54332 0.044,-8.18944 -0.034,-15.61646 -0.176,-16.5045 -0.2223,-1.39956 0.031,-2.48258 1.894,-8.13332 2.0798,-6.30514 4.1586,-11.6754 6.4698,-16.7131 0.8436,-1.83902 1.2878,-2.42188 1.8452,-2.42188 1.0408,0 2.585,-1.83408 3.5614,-4.22986 1.9414,-4.7638 4.0844,-9.04128 4.6248,-9.23172 0.3194,-0.1124 1.0236,-1.14168 1.5652,-2.2871 1.2426,-2.62842 3.8618,-5.4858 11.2328,-12.25415 4.9178,-4.51574 5.869,-5.24944 5.9657,-4.60138 0.108,0.7225 0.2167,0.68532 1.7299,-0.59192 4.3182,-3.64504 11.7148,-7.65433 23.0948,-12.5185 4.88117,-2.08644 6.52497,-2.64532 6.88977,-2.34261 0.3547,0.29445 1.4921,0.20372 4.3859,-0.34993 5.227,-1.00002 5.6496,-0.95491 3.3591,0.35861 -1.0545,0.60466 -1.8619,1.15194 -1.794,1.21624 0.068,0.0642 0.9623,-0.019 1.9879,-0.18118 1.0426,-0.16648 2.8619,-0.15392 4.1263,0.029 1.2435,0.17976 2.5034,0.34045 2.7994,0.35694 0.3138,0.019 0.2016,0.1653 -0.2693,0.35443 -0.4439,0.17836 -0.8072,0.49116 -0.8072,0.69487 0,0.54389 3.1953,0.45269 7.0278,-0.20063 2.6432,-0.45058 3.7342,-0.48838 5.1748,-0.1793 2.489,0.53379 2.5537,0.51913 2.293,-0.51955 l -0.2288,-0.91105 1.388,0.54607 c 0.7635,0.30032 3.5676,1.21005 6.2317,2.0216 2.6639,0.81157 6.8493,2.43115 9.3007,3.59908 l 4.457,2.12348 2.1198,-0.54311 c 2.5432,-0.65152 3.5118,-0.67507 5.3324,-0.12974 0.8702,0.26066 1.465,0.69177 1.609,1.16608 0.3352,1.10319 1.15,1.9256 3.479,3.51158 2.4456,1.66548 3.257,1.64892 1.838,-0.0376 l -1.008,-1.19796 1.0568,0.54758 c 1.8514,0.95924 6.7988,4.65288 10.1325,7.56452 3.1891,2.78557 7.3975,7.35869 10.1793,11.06129 3.0829,4.10378 7.163,11.76432 8.3728,15.72054 l 0.2744,0.89702 -0.771,-0.89702 -0.7711,-0.89696 0.176,3.58794 c 0.134,2.70512 0.4437,4.37694 1.2615,6.79468 1.4482,4.28096 1.3538,4.80136 -0.134,0.73998 -2.2398,-6.11358 -5.1682,-11.71494 -5.5328,-10.58306 -0.2652,0.82332 -0.7907,1.02868 -2.0913,0.8176 -0.9272,-0.1504 -1.2451,-0.0508 -1.4377,0.45104 -0.3493,0.91008 0.4564,4.44226 1.2008,5.26478 0.5754,0.63598 0.6564,0.64304 1.0592,0.0922 0.3843,-0.52554 0.5246,-0.42342 1.1788,0.8589 0.4081,0.80048 0.7424,1.88586 0.7424,2.41198 0,0.5261 0.3389,2.4002 0.7532,4.16462 0.4142,1.76446 0.6902,3.271 0.6134,3.34788 -0.076,0.0768 -0.5346,-0.4991 -1.0172,-1.27998 -1.2976,-2.0994 -1.8794,-1.87262 -1.1902,0.46388 0.7753,2.62934 1.483,4.25526 2.1926,5.03938 0.57,0.62998 0.5691,0.69138 -0.02,1.01764 -0.7321,0.4096 -0.8173,2.2299 -0.232,4.9582 0.378,1.76218 0.5734,1.95858 1.8256,1.8352 0.5064,-0.0498 0.3808,0.57236 -0.8056,3.99508 -0.773,2.2298 -1.4218,4.78076 -1.4419,5.66878 l -0.036,1.61456 -0.5519,-1.34546 c -0.7332,-1.78696 -1.1722,-1.70054 -1.1722,0.23074 0,1.0701 -0.172,1.64254 -0.5383,1.78276 -0.3455,0.1326 -0.5402,0.692 -0.5435,1.56324 0,2.44396 -0.996,5.63266 -3.2232,10.41776 -1.2052,2.58946 -2.2884,5.30714 -2.4073,6.03924 l -0.216,1.3311 -0.9621,-1.17896 -0.9625,-1.17898 -1.3141,2.1013 c -1.0852,1.7346 -1.3189,2.4476 -1.3396,4.08586 -0.02,1.09154 -0.178,2.30752 -0.3655,2.70218 -0.2605,0.54958 -0.3015,0.40038 -0.176,-0.63736 l 0.164,-1.35494 -0.9656,0.70002 c -0.5312,0.385 -2.0152,1.77638 -3.2978,3.09196 -6.8719,7.0483 -15.1512,11.79738 -24.7567,14.20118 -3.0462,0.76232 -4.1907,0.85176 -10.7639,0.84128 -6.1655,-0.01 -7.9067,-0.1352 -10.7638,-0.77508 -6.0144,-1.34692 -8.6419,-2.34798 -10.2322,-3.89798 -0.7928,-0.7729 -3.0188,-2.68064 -4.9464,-4.23942 -8.3605,-6.76068 -13.0989,-13.40154 -15.24067,-21.35936 -0.8367,-3.1085 -0.9252,-4.07898 -0.9376,-10.25066 l -0.02,-6.81708 1.1041,-2.15276 c 0.6072,-1.184 1.3903,-3.0408 1.7396,-4.12612 1.03597,-3.21748 2.63387,-6.17214 4.26867,-7.89344 0.8434,-0.88804 2.0496,-2.44316 2.6803,-3.45584 2.1736,-3.4894 6.7724,-7.1531 11.3228,-9.02036 3.5556,-1.45896 5.5487,-1.89068 9.7168,-2.10466 7.5428,-0.3872 13.5224,1.76056 19.9693,7.17264 2.4985,2.09748 3.2042,3.25422 0.9539,1.5639 -1.7246,-1.29552 -5.1204,-2.92428 -8.0066,-3.84016 -3.487,-1.1065 -10.0764,-1.38554 -13.9241,-0.58966 -11.9005,2.46148 -20.7891,10.94748 -23.7683,22.69198 -0.6054,2.3865 -0.878,4.44938 -0.878,6.6442 0,2.85916 0.3407,3.96938 0.8388,2.73466 0.1006,-0.24668 0.194,0.28876 0.2093,1.18988 0.106,6.13776 3.1489,13.86098 7.7038,19.55378 7.4865,9.35718 19.4199,14.7805 29.6391,13.46994 1.7203,-0.22054 4.0791,-0.7335 5.2414,-1.13976 1.1626,-0.40628 2.7006,-0.78508 3.4176,-0.8418 2.0032,-0.1584 5.6418,-2.0689 8.0002,-4.20044 1.3926,-1.25862 1.9054,-1.5834 1.4836,-0.93972 -0.627,0.95692 -0.6254,0.9837 0.058,0.9837 0.3864,0 1.8178,-0.79666 3.1807,-1.77036 3.1867,-2.2766 10.59,-8.78748 11.1621,-9.81654 0.242,-0.4353 0.4456,-1.53432 0.4526,-2.4422 0.02,-2.62604 0.5562,-3.68306 2.2966,-4.52862 1.449,-0.70396 1.6192,-0.95114 2.8244,-4.10194 1.2976,-3.3929 2.0782,-6.70152 2.0548,-8.71096 l -0.02,-1.1002 -0.5452,0.897 -0.5451,0.89698 0.2395,-1.07638 c 0.4247,-1.90898 0.6112,-19.6 0.2152,-20.41538 -0.2012,-0.4144 -0.5491,-2.12582 -0.7728,-3.80316 -0.7978,-5.97886 -4.2766,-14.59506 -8.2628,-20.46506 -3.9609,-5.83266 -9.5118,-11.74244 -14.6548,-15.60224 -7.0153,-5.26513 -15.8076,-8.21919 -27.1804,-9.13217 -4.4538,-0.35752 -11.9686,-0.0428 -13.5605,0.56838 -0.3167,0.1216 -0.7757,0.0598 -1.0198,-0.137 -0.5689,-0.45888 -4.3047,0.0348 -7.4404,0.98324 -1.2826,0.38796 -3.866,1.57772 -5.7407,2.64393 -1.87477,1.06622 -4.49837,2.2958 -5.83027,2.73238 -1.4786,0.48464 -2.422,0.99202 -2.422,1.30272 0,0.27992 0.039,0.50704 0.09,0.50468 0.05,-0.002 0.9778,-0.2426 2.0632,-0.53394 2.5151,-0.67514 2.5548,-0.66882 1.2096,0.1932 -0.7085,0.45392 -2.282,0.86106 -4.265,1.10364 -3.8075,0.4657 -5.3584,0.98548 -7.8086,2.617 -2.5004,1.66482 -5.3016,4.51788 -4.4358,4.51788 0.35,0 0.985,-0.1866 1.4112,-0.41468 0.7536,-0.40332 0.7592,-0.39104 0.2021,0.4485 -0.4087,0.6159 -1.0409,0.93068 -2.2069,1.09874 -2.2784,0.32838 -5.9892,2.37016 -9.5824,5.27252 -5.3626,4.3314 -14.5755,14.35296 -16.4587,17.90318 -0.3915,0.73754 -0.3499,0.80732 0.4811,0.80732 0.5004,0 0.9096,0.1172 0.9096,0.26056 0,0.1434 -1.6272,3.50708 -3.616,7.47506 l -3.6162,7.21446 -1.0808,10.01614 c -0.7206,6.6783 -1.0984,12.10854 -1.1338,16.295 -0.058,6.87524 0.3304,9.54536 1.77,12.16168 0.784,1.42478 0.8454,1.84586 0.6362,4.35582 -0.2193,2.63048 -0.174,2.88576 0.8585,4.7913 0.7849,1.44932 0.9491,2.01278 0.5863,2.01278 -0.277,0 -0.5036,0.1362 -0.5036,0.30262 0,0.62106 1.373,4.26274 2.2876,6.06756 1.0547,2.08166 1.9122,2.76496 3.9092,3.11526 0.7442,0.1306 1.8978,0.7155 2.5634,1.29988 1.1172,0.98098 3.7281,5.48052 4.332,7.466 l 0.2586,0.84982 -1.1586,-0.67046 c -0.6372,-0.3687 -1.3388,-0.95296 -1.5592,-1.29828 -0.2204,-0.34534 -0.5264,-0.6279 -0.68,-0.6279 -0.8101,0 1.6173,5.30174 3.8928,8.50254 1.1004,1.54764 1.1546,1.74266 0.6422,2.30892 -0.7546,0.8339 -0.4058,1.75112 1.3241,3.48088 0.8173,0.81748 1.2467,1.48918 1.0037,1.57018 -1.0278,0.34258 0.535,3.14356 5.5392,9.9275 2.1236,2.87882 2.8014,3.58302 2.986,3.10206 0.178,-0.46122 0.5368,0.014 1.3898,1.83702 0.633,1.3526 1.9006,3.46842 2.8168,4.70174 1.5872,2.13656 1.738,2.24258 3.1916,2.2449 1.3207,0.002 1.6332,0.1604 2.327,1.17972 1.1927,1.75212 2.9026,3.29022 5.1692,4.64984 l 2.0238,1.21406 -0.6704,0.8722 c -0.3686,0.47972 -0.674,0.96356 -0.6784,1.07526 0,0.1116 0.8918,0.576 1.9916,1.0318 1.0996,0.4558 2.4606,1.21688 3.0244,1.6913 1.0039,0.8447 6.16237,3.40864 6.39317,3.17766 0.065,-0.0644 -0.15,-0.65682 -0.477,-1.31648 -0.4332,-0.87472 0.2638,-0.3091 2.5748,2.08936 5.3848,5.58864 7.9761,6.78664 18.8214,8.7018 2.2939,0.40512 4.5543,0.89006 5.0232,1.07762 1.0189,0.40794 1.3412,0.40746 -6.6878,0.01 z m 12.7425,-68.01456 c -10.7267,-2.009 -19.9221,-6.55288 -26.9496,-13.31708 -1.6992,-1.63566 -3.7765,-3.98158 -4.6156,-5.21318 -1.3213,-1.93886 -0.8524,-1.54134 3.495,2.96326 2.7615,2.86138 5.5247,5.49418 6.1406,5.85068 1.3868,0.80294 1.4505,0.481 0.126,-0.63404 -0.5468,-0.4601 -1.7889,-1.86242 -2.7602,-3.11628 l -1.7662,-2.27978 2.1324,1.98286 c 3.7536,3.49052 9.8274,7.40232 10.122,6.51896 0.086,-0.25774 0.8696,0.20348 1.946,1.14498 0.9912,0.86712 2.6447,1.98912 3.6746,2.49334 2.7018,1.32298 8.5466,2.40362 14.3407,2.6514 3.7057,0.1586 4.7811,0.30266 4.1359,0.55448 -0.9463,0.3693 -8.5624,0.67362 -10.0212,0.4004 z m -33.0416,-15.35372 c -2.79347,-3.33602 -4.63177,-6.28172 -4.63177,-7.42136 0,-0.71962 0.128,-1.05338 0.3242,-0.84682 0.5432,0.57094 5.51647,9.15258 5.37217,9.26936 -0.074,0.06 -0.5534,-0.39056 -1.0646,-1.00118 z m 0.2034,-9.27282 -0.56527,-1.16608 0.73547,0.84704 c 0.4044,0.46586 0.7353,0.9906 0.7353,1.16608 0,0.62722 -0.3493,0.3004 -0.9055,-0.84704 z m 34.8925,-2.73826 c -3.8496,-1.00392 -3.8556,-1.47756 -0.02,-1.47756 1.7908,0 3.8008,-0.0944 4.4668,-0.20964 l 1.211,-0.20966 -1.3402,1.28594 c -0.7372,0.7073 -1.4636,1.27664 -1.6146,1.26528 -0.15,-0.012 -1.368,-0.30592 -2.7048,-0.65452 z m 15.7468,-7.32334 c -0.6286,-0.4596 -0.6006,-0.51654 0.4696,-0.95988 0.6258,-0.2592 1.3766,-0.9329 1.6684,-1.49712 0.2917,-0.56424 0.6102,-1.02586 0.7078,-1.02586 0.2154,0 -1.0272,2.4395 -1.6968,3.33122 -0.4154,0.55308 -0.5717,0.57372 -1.149,0.1516 z m -1.6556,-1.01878 c 0,-0.54574 2.4336,-4.61682 2.76,-4.61682 0.106,0 -0.076,0.41026 -0.4044,0.91176 -0.3286,0.50144 -0.993,1.65568 -1.4766,2.56496 -0.4834,0.9093 -0.879,1.42234 -0.879,1.1401 z m 7.8496,-16.36402 c -0.4967,-1.4558 -0.4638,-2.16118 0.136,-2.8906 0.5834,-0.70938 0.9724,0.1444 0.9788,2.14854 0,2.13664 -0.519,2.48684 -1.1145,0.74206 z M 933.98123,464.37568 c -0.2998,-0.74316 0.3709,-3.3177 0.9587,-3.68104 0.4097,-0.25314 0.124,2.2132 -0.4175,3.61828 -0.2616,0.67732 -0.292,0.68084 -0.5412,0.0628 z m 5.0524,-16.91024 c 0.2868,-0.6867 0.5216,-1.65736 0.5216,-2.15706 0,-0.72292 0.178,-0.90852 0.872,-0.90852 0.7838,0 0.842,0.0996 0.5756,0.98672 -0.4985,1.65922 -0.7274,2.03892 -1.6256,2.69522 l -0.8654,0.63218 z m 84.29987,-44.68558 c -0.6359,-0.27325 -0.6053,-0.31125 0.2691,-0.33359 0.5426,-0.0142 0.9865,0.13614 0.9865,0.33359 0,0.42112 -0.2756,0.42112 -1.2556,0 z"
       id="path2377" />
    <path
       style="display:inline;fill:#fefefe;stroke-width:0.207552"
       d="m 1048.8156,611.81076 c -17.1772,-6.31524 -28.1486,-22.22616 -27.7557,-40.25146 0.142,-6.506 2.1932,-14.1438 5.3538,-19.93502 3.7246,-6.82458 9.6803,-12.6512 16.8858,-16.51994 15.4944,-8.31914 34.6424,-6.11526 47.8384,5.506 5.7432,5.05788 9.5838,10.8245 11.9616,17.96038 2.0124,6.03868 2.6178,11.70342 1.9492,18.23402 -0.273,2.6668 -2.156,9.6902 -3.3032,12.32084 -3.6998,8.48328 -9.9712,15.45906 -17.9072,19.91866 -7.6086,4.27556 -16.1362,6.01174 -24.8886,5.06698 -2.4448,-0.26396 -8.0646,-1.53966 -10.1341,-2.30046 z m 7.2079,-3.47744 c 15.8538,2.82014 31.432,-4.43916 39.2734,-18.30088 2.7722,-4.90084 4.1246,-9.40622 4.495,-14.97506 0.3524,-5.2973 -0.7106,-11.73464 -2.7126,-16.42794 l -0.5322,-1.2475 -2.9382,-0.92968 c -6.526,-2.06486 -12.9266,-2.74214 -17.8988,-1.89394 l -1.8742,0.3197 0.8698,0.25726 0.8698,0.25728 -0.7366,2.1112 c -0.9302,2.6667 -2.406,5.82704 -3.7178,7.96204 -2.717,4.42192 -6.9428,7.79546 -9.9132,7.91384 -1.304,0.0518 -3.064,-0.65542 -3.5328,-1.42006 -0.4942,-0.80594 -0.8026,-2.35642 -0.768,-3.8601 0.041,-1.78252 1.1564,-5.43024 2.2157,-7.24726 1.7016,-2.9188 5.4718,-6.616 8.8749,-8.70302 2.006,-1.23 12.3184,-6.49346 16.1024,-8.21836 l 1.6238,-0.74034 -1.544,-1.10436 c -3.4662,-2.4792 -6.87,-4.14924 -10.5246,-5.164 -3.0186,-0.83808 -2.6601,-0.94466 -5.4384,1.61624 -4.0464,3.72976 -8.3739,9.86496 -11.3493,16.09014 -0.6447,1.34854 -1.1803,2.8922 -1.8409,5.30508 -0.8176,2.98598 -0.9342,3.65324 -0.9522,5.4434 -0.048,4.83664 1.5604,8.98696 4.1748,10.76962 1.8236,1.24338 4.7896,1.18656 7.4582,-0.1432 1.5516,-0.77308 4.1056,-2.95102 5.4304,-4.63084 2.2174,-2.81128 4.4581,-7.9313 5.572,-12.73136 l 0.6516,-2.8072 1.0046,0.3849 c 0.7402,0.28354 1.0482,0.5175 1.1696,0.88848 0.092,0.282 0.3769,0.5624 0.6473,0.6372 0.9419,0.26076 3.4697,5.58216 4.5757,9.6324 0.6198,2.26948 1.01,5.62594 0.9494,8.16358 -0.04,1.68646 -0.186,2.42668 -1.2082,6.11926 -1.2598,4.55366 -1.8854,5.9548 -3.989,8.93386 -4.1826,5.92344 -11.3138,10.74552 -19.3918,13.11294 -3.6064,1.057 -11.3896,2.24686 -12.5663,1.92108 -0.2225,-0.0612 -0.2969,-0.008 -0.2077,0.1494 0.13,0.23002 2.8304,1.34164 4.6272,1.90496 0.436,0.1368 1.8087,0.42922 3.0504,0.6502 z m -2.9504,-20.30602 c 7.2198,1.02188 13.9516,-0.008 18.4372,-2.82272 3.8382,-2.40802 6.2854,-5.59198 7.7504,-10.08502 0.9924,-3.04392 1.2723,-5.4264 1.0866,-9.25374 -0.142,-2.9117 -0.7658,-6.7385 -0.9088,-5.56956 -0.5238,4.27788 -2.3314,10.8111 -3.7132,13.4203 -2.9393,5.54982 -7.5284,8.97276 -12.4335,9.27388 -2.8873,0.1772 -7.1667,-0.86418 -9.7199,-2.36524 -4.4848,-2.63678 -9.0067,-9.00684 -10.6453,-14.9964 -1.5889,-5.80728 -2.1859,-13.48826 -1.7177,-22.09866 0.036,-0.6534 -0.144,-0.55202 -2.2762,1.2879 -3.3683,2.90646 -6.6878,7.14454 -8.8713,11.32704 -0.8771,1.67966 -1.2023,2.59004 -2.1711,6.07516 -0.9788,3.52164 -1.1572,4.41316 -1.2667,6.32536 -0.148,2.57966 -0.12,4.32356 0.106,6.85928 l 0.162,1.81394 1.0344,0.64382 c 4.1768,2.59922 10.1967,5.6624 14.1822,7.21652 2.7886,1.08728 8.3144,2.57322 10.9638,2.9482 z m 7.9316,-21.15954 c 1.9302,-0.93358 5.0924,-4.03222 6.7988,-6.66204 1.0352,-1.59534 2.2134,-3.93532 2.0908,-4.15198 -0.041,-0.0726 -0.6138,0.0406 -1.2726,0.2517 -1.3002,0.4163 -2.0796,1.19342 -2.4159,2.4086 -0.3029,1.09378 -1.9614,3.47634 -3.1661,4.54772 -0.6092,0.54192 -1.736,1.28264 -2.5037,1.64616 -0.7681,0.36352 -1.4291,0.77882 -1.4689,0.92286 -0.098,0.35352 0.4354,1.26392 0.7995,1.36462 0.162,0.0446 0.6733,-0.1028 1.1381,-0.32772 z"
       id="path12817" />
  </g>
</svg>
